<?xml version="1.0" standalone="no"?>
<!DOCTYPE svg PUBLIC "-//W3C//DTD SVG 20010904//EN"
 "http://www.w3.org/TR/2001/REC-SVG-20010904/DTD/svg10.dtd">
<svg version="1.0" xmlns="http://www.w3.org/2000/svg"
 width="300.000000pt" height="300.000000pt" viewBox="0 0 300.000000 300.000000"
 preserveAspectRatio="xMidYMid meet">
<metadata>
Created by potrace 1.10, written by Peter Selinger 2001-2011
</metadata>
<g transform="translate(0.000000,300.000000) scale(0.100000,-0.100000)"
fill="#000000" stroke="none">
<path d="M1422 2964 c-28 -29 -32 -40 -27 -64 4 -19 3 -30 -4 -30 -6 0 -11 -4
-11 -10 0 -5 7 -10 15 -10 8 0 15 4 15 9 0 5 9 13 21 16 14 5 27 -1 47 -22 24
-25 27 -26 30 -9 2 10 -3 23 -12 28 -13 7 -14 13 -6 29 6 11 8 24 5 29 -8 13
-35 1 -35 -16 0 -15 -18 -18 -44 -8 -25 10 -19 22 14 29 17 4 30 13 30 20 0 7
3 20 6 29 10 26 -9 18 -44 -20z"/>
<path d="M1567 2993 c-2 -5 -8 -26 -11 -47 -6 -29 -10 -36 -17 -25 -7 11 -9
11 -9 -3 0 -10 4 -18 8 -18 18 0 52 48 52 73 0 25 -13 36 -23 20z"/>
<path d="M1686 2978 c11 -13 34 -39 51 -59 19 -23 35 -34 43 -29 9 6 9 12 -1
29 -8 11 -19 21 -25 21 -5 0 -23 14 -39 30 -33 35 -58 41 -29 8z"/>
<path d="M1776 2984 c-3 -8 -10 -13 -15 -9 -5 3 -12 1 -16 -5 -3 -6 2 -13 12
-16 10 -3 27 -10 37 -16 16 -9 18 -7 13 11 -3 12 -1 24 4 27 16 9 10 24 -10
24 -10 0 -22 -7 -25 -16z"/>
<path d="M1838 2967 c2 -22 -2 -38 -12 -46 -9 -8 -16 -20 -16 -27 0 -8 -3 -14
-7 -14 -5 0 -17 -12 -27 -27 -11 -14 -14 -23 -7 -18 17 10 33 -15 20 -31 -7
-8 -6 -14 1 -19 16 -10 12 -55 -6 -55 -14 0 -14 -2 0 -15 29 -29 48 -11 39 37
-3 17 0 27 11 31 18 7 18 9 21 -103 2 -94 -8 -141 -27 -122 -7 7 -22 12 -34
12 -17 0 -20 -4 -16 -26 4 -22 9 -25 34 -22 21 4 33 0 41 -14 18 -29 26 -21
20 21 -3 24 -1 41 6 46 9 5 9 10 0 21 -8 10 -9 17 0 28 7 8 9 30 5 58 -4 30
-2 48 5 53 8 4 14 -1 18 -14 4 -15 11 -20 23 -16 10 3 21 1 25 -5 5 -8 12 -5
22 7 14 17 14 17 10 -4 -5 -20 -2 -22 21 -17 40 10 46 16 27 26 -12 7 -15 17
-10 36 l6 27 -21 -22 c-11 -13 -24 -23 -27 -23 -4 0 -18 10 -31 23 l-25 22 12
-23 c11 -21 11 -23 -6 -20 -33 7 -18 49 40 110 22 23 40 23 33 0 -5 -15 -1
-19 24 -19 18 0 30 6 30 13 0 8 -6 11 -13 8 -7 -2 -22 5 -33 17 -10 13 -14 19
-7 16 6 -4 19 0 27 9 24 24 50 14 54 -21 5 -40 18 -52 27 -24 15 47 66 65 85
30 15 -30 12 -52 -12 -78 l-21 -23 21 0 c25 0 27 -7 11 -47 -6 -15 -13 -40
-14 -55 -2 -22 0 -25 11 -14 7 7 10 23 7 34 -4 17 0 21 24 24 16 2 27 8 25 16
-3 18 36 92 53 99 18 6 10 23 -12 23 -9 0 -13 -6 -9 -15 3 -8 1 -15 -4 -15
-19 0 -18 17 1 49 15 25 23 30 33 22 7 -6 21 -8 31 -5 16 7 16 8 2 19 -12 9
-16 24 -13 53 3 37 1 42 -18 42 -14 0 -26 -10 -35 -31 -14 -32 -7 -54 10 -29
7 11 9 7 7 -15 -3 -34 -35 -47 -53 -21 -16 21 -81 15 -99 -9 -18 -25 -46 -12
-46 20 0 28 -3 30 -29 13 -36 -22 -69 30 -39 60 17 17 -3 15 -41 -4 -23 -11
-36 -13 -43 -6 -13 13 -58 -6 -58 -25 0 -25 -29 -13 -32 14 -2 14 -8 28 -14
30 -6 2 -9 -10 -6 -30z m145 -21 c9 -3 17 -14 17 -24 0 -10 -8 -26 -17 -35
-15 -13 -21 -13 -35 -3 -10 7 -15 16 -11 19 3 4 -3 7 -15 7 -15 0 -22 6 -22
20 0 24 28 41 49 30 9 -5 24 -11 34 -14z m-105 -69 c3 -27 17 -36 24 -16 3 9
9 9 26 0 12 -6 19 -17 16 -25 -7 -19 -38 -30 -42 -17 -5 15 -29 14 -34 0 -2
-7 -13 -9 -26 -5 -27 9 -30 51 -5 78 22 24 37 18 41 -15z"/>
<path d="M2097 2981 c12 -10 19 -21 16 -25 -4 -3 1 -6 10 -6 10 0 17 2 17 5 0
10 -41 45 -52 45 -7 -1 -3 -9 9 -19z"/>
<path d="M2150 2993 c8 -3 18 -11 22 -17 5 -7 8 -7 8 2 0 9 7 11 20 7 11 -4
20 -2 20 4 0 6 -19 11 -42 10 -24 0 -36 -3 -28 -6z"/>
<path d="M2403 2986 c3 -8 2 -16 -2 -18 -5 -2 -12 -19 -15 -38 l-7 -35 17 30
c20 35 27 75 12 75 -6 0 -8 -6 -5 -14z"/>
<path d="M56 2975 c-3 -8 -17 -17 -31 -21 -25 -6 -31 -15 -19 -27 4 -3 13 1
21 9 8 8 19 12 24 8 13 -7 39 14 39 32 0 19 -26 18 -34 -1z"/>
<path d="M355 2965 c2 -11 4 -23 4 -27 1 -5 10 -8 20 -8 11 0 21 -5 23 -12 2
-6 14 -13 26 -14 18 -3 20 -1 13 19 -6 15 -15 21 -30 19 -13 -2 -29 6 -41 20
-17 21 -18 21 -15 3z"/>
<path d="M746 2965 c9 -24 41 -38 47 -21 3 8 -5 18 -19 25 -32 14 -35 14 -28
-4z"/>
<path d="M2478 2940 c-24 -27 -23 -47 2 -45 22 1 53 25 33 25 -7 0 -13 9 -15
20 l-3 21 -17 -21z"/>
<path d="M488 2935 c-4 -4 -4 -13 -1 -21 3 -8 1 -14 -3 -14 -5 0 -10 -20 -10
-44 -1 -29 2 -43 10 -40 6 2 11 21 11 42 0 21 6 39 13 42 10 4 10 9 -1 23 -7
10 -15 15 -19 12z"/>
<path d="M327 2914 c8 -4 9 -13 3 -29 -6 -17 -6 -26 3 -31 7 -4 22 -14 35 -22
31 -20 29 3 -4 33 -22 21 -25 27 -14 40 11 13 9 15 -11 14 -13 0 -19 -3 -12
-5z"/>
<path d="M1228 2900 c-7 -11 -18 -20 -24 -20 -18 0 -11 -53 10 -75 18 -20 18
-20 7 1 -8 17 -7 29 5 53 8 17 19 33 25 36 5 4 9 10 9 16 0 16 -19 10 -32 -11z"/>
<path d="M2530 2890 c0 -11 6 -20 14 -20 8 0 17 -6 19 -12 4 -10 8 -9 16 2 8
12 5 16 -15 18 -17 2 -24 8 -20 18 3 8 1 14 -4 14 -6 0 -10 -9 -10 -20z"/>
<path d="M1710 2879 c0 -5 -14 -9 -31 -9 -19 0 -28 -4 -24 -11 4 -6 13 -8 20
-5 10 4 11 -2 4 -27 -5 -18 -9 -33 -9 -34 0 -1 18 15 40 37 22 22 40 41 40 43
0 3 -9 7 -20 10 -11 3 -20 1 -20 -4z"/>
<path d="M97 2851 c-3 -12 1 -22 9 -25 9 -3 14 1 14 13 0 11 6 22 13 24 6 3 2
6 -9 6 -13 1 -24 -6 -27 -18z"/>
<path d="M2597 2841 l-16 -28 25 5 c19 3 22 7 12 13 -9 6 -7 9 10 9 13 0 22 6
22 15 0 26 -35 17 -53 -14z"/>
<path d="M2460 2827 c-14 -17 -24 -35 -22 -39 1 -4 -2 -8 -7 -8 -5 0 -4 -16 2
-35 12 -39 23 -31 28 20 2 17 11 41 21 54 36 48 16 56 -22 8z"/>
<path d="M2786 2844 c-19 -18 -20 -30 -4 -40 7 -5 8 -3 4 5 -5 8 0 14 13 18
22 6 27 18 12 28 -5 3 -17 -2 -25 -11z"/>
<path d="M1513 2824 c-7 -7 -13 -18 -13 -23 0 -6 -6 -8 -14 -5 -11 4 -13 -3
-9 -35 5 -34 2 -42 -13 -48 -28 -10 -46 -31 -38 -44 5 -8 3 -9 -6 -4 -10 6
-11 1 -6 -21 12 -44 44 -59 53 -24 3 11 10 20 16 20 6 0 7 3 4 7 -4 3 0 15 9
25 13 13 14 21 6 31 -9 10 -9 23 0 48 6 19 13 41 15 49 3 11 6 12 12 2 4 -7
15 -10 24 -6 9 3 14 10 11 15 -3 5 -9 7 -14 4 -5 -3 -12 1 -17 9 -7 12 -10 12
-20 0z"/>
<path d="M646 2815 c-8 -23 21 -52 37 -36 9 9 9 14 -1 20 -8 5 -13 12 -12 17
3 16 -17 15 -24 -1z"/>
<path d="M870 2816 c0 -8 -6 -16 -12 -19 -22 -8 4 -26 40 -29 17 -1 32 -4 32
-6 0 -1 -11 -14 -24 -27 l-24 -24 -30 37 c-45 53 -40 19 8 -61 40 -66 50 -91
28 -69 -19 19 -30 14 -18 -8 6 -11 7 -20 3 -20 -17 0 -31 17 -42 52 -7 20 -19
42 -28 50 -15 11 -16 11 -9 -7 5 -11 12 -33 17 -50 8 -29 22 -61 40 -97 7 -14
5 -18 -8 -18 -11 0 -2 -14 29 -45 25 -25 51 -45 58 -45 7 0 10 -6 7 -14 -9
-22 5 -28 25 -9 21 19 23 8 6 -30 -17 -36 -42 -30 -46 11 -2 17 -7 32 -11 32
-10 0 -21 -50 -21 -91 0 -30 -24 -41 -33 -16 -3 6 -4 -1 -2 -18 2 -27 5 -30
32 -27 24 3 32 -1 36 -17 5 -21 41 -29 51 -12 6 10 -13 29 -29 30 -21 0 -16
33 9 56 14 13 26 32 26 43 0 35 37 63 81 60 21 -2 39 -6 39 -10 0 -5 7 -8 15
-8 11 0 13 8 8 31 -5 25 -3 31 8 27 8 -2 15 -14 17 -26 6 -37 30 -25 56 26 22
43 13 53 -18 19 -14 -15 -27 -27 -30 -27 -9 0 -4 76 7 88 8 10 5 14 -11 19
-25 6 -29 21 -7 29 28 11 15 26 -17 21 -32 -5 -88 18 -88 35 0 4 -9 8 -21 8
-31 0 -17 -23 22 -36 22 -8 34 -18 34 -30 0 -9 6 -19 13 -22 15 -5 42 -54 42
-77 0 -12 -6 -15 -20 -10 -14 4 -20 2 -20 -8 0 -13 -57 -33 -67 -23 -3 2 1 21
7 43 6 21 10 56 8 78 -3 37 -4 38 -15 19 -7 -12 -13 -51 -15 -87 -2 -61 -4
-66 -27 -70 -36 -7 -61 13 -62 48 0 26 -2 27 -9 10 -7 -17 -9 -18 -9 -2 -1 9
-12 27 -26 39 -14 12 -25 25 -25 30 0 17 29 7 48 -17 l20 -25 12 29 c6 16 18
32 26 35 8 3 14 14 14 24 0 27 23 72 38 72 7 0 12 13 12 30 0 17 5 39 12 49 6
10 8 26 5 36 -6 15 -9 15 -28 -6 -11 -13 -18 -19 -15 -13 3 7 0 17 -8 23 -11
9 -15 6 -19 -16 -9 -43 -15 -80 -10 -60 6 23 15 22 31 -3 14 -23 8 -41 -11
-36 -7 1 -9 1 -5 -1 4 -3 -2 -23 -13 -46 -20 -38 -22 -40 -35 -22 -12 16 -11
21 3 37 15 16 15 21 3 28 -9 6 -17 5 -22 -3 -4 -6 -11 -8 -15 -3 -4 5 -2 11 5
13 6 3 9 10 5 16 -4 8 -1 8 9 -1 13 -11 16 -8 22 19 9 45 9 44 -20 78 -28 33
-44 39 -44 17z"/>
<path d="M1300 2820 c0 -5 -11 -10 -25 -10 -14 0 -25 -4 -25 -10 0 -5 9 -10
19 -10 28 0 79 -32 85 -52 2 -10 0 -18 -5 -18 -5 0 -9 -6 -9 -13 0 -8 -11 -24
-25 -37 -13 -12 -23 -26 -20 -29 14 -24 -55 -45 -85 -26 -13 7 -13 6 -2 -7 10
-13 10 -19 -3 -31 -20 -21 -19 -26 9 -37 18 -7 22 -14 19 -34 -3 -16 2 -32 17
-48 l21 -23 -6 28 c-6 21 -4 27 10 27 12 0 15 5 11 16 -3 9 -6 18 -6 21 0 3
-6 0 -14 -6 -10 -9 -13 -7 -12 8 2 31 35 51 64 38 18 -8 22 -16 17 -34 -3 -14
-1 -23 7 -23 6 0 20 -7 30 -17 10 -9 21 -13 25 -9 5 4 0 12 -10 17 -21 12 -23
49 -2 49 7 0 19 -8 24 -17 10 -17 10 -17 11 0 0 9 3 17 8 18 67 7 88 3 97 -18
11 -25 28 -32 19 -8 -11 28 14 15 45 -22 31 -38 39 -34 22 9 -5 13 -21 30 -35
37 -16 9 -26 23 -26 37 0 12 -6 25 -12 27 -9 4 -10 6 -1 6 6 1 24 6 39 11 19
8 24 14 17 21 -8 8 -19 6 -37 -6 -14 -10 -32 -15 -40 -12 -8 3 -17 -2 -21 -11
-3 -9 -2 -18 4 -20 7 -2 6 -8 -2 -16 -6 -8 -18 -11 -25 -8 -7 2 -25 -1 -39 -9
-22 -12 -27 -11 -39 5 -7 11 -11 22 -9 27 3 4 1 10 -5 14 -6 3 -10 -3 -10 -15
0 -17 -5 -21 -27 -18 -24 2 -28 8 -29 33 0 40 37 76 48 45 2 -6 9 -6 18 0 12
7 12 12 2 22 -6 6 -12 29 -12 50 0 32 5 40 30 53 52 27 33 54 -21 31 -28 -12
-35 -12 -47 0 -16 16 -32 18 -32 4z"/>
<path d="M270 2805 c0 -9 6 -15 13 -12 6 2 24 -4 38 -14 29 -20 109 -50 109
-40 -1 15 -18 27 -70 49 -82 35 -90 37 -90 17z"/>
<path d="M2092 2803 c-6 -2 -10 -9 -7 -13 3 -5 -1 -36 -10 -69 -8 -32 -15 -78
-15 -100 0 -31 -5 -43 -17 -48 -10 -4 -20 -10 -23 -13 -3 -4 -13 -11 -23 -16
-17 -10 -17 -11 1 -35 11 -13 17 -30 15 -36 -3 -8 4 -13 19 -13 34 0 34 -34 0
-50 -15 -7 -35 -17 -45 -22 -25 -12 -34 -2 -19 22 8 13 8 21 1 26 -15 9 -22
-2 -29 -49 l-7 -42 -12 29 c-6 16 -14 26 -18 22 -3 -3 -12 -1 -20 5 -9 8 -13
8 -13 1 0 -6 5 -14 10 -17 15 -9 12 -25 -5 -25 -8 0 -15 -5 -15 -10 0 -6 7
-13 15 -16 24 -10 17 -24 -12 -24 -24 -1 -25 -2 -10 -11 19 -11 23 -44 7 -54
-16 -10 -11 -27 7 -23 9 2 20 14 23 28 5 20 11 24 31 22 14 -2 32 4 39 12 10
13 10 16 -5 16 -11 0 -15 5 -11 15 7 20 -3 19 -27 -2 -18 -17 -19 -17 -16 7 3
17 9 24 21 22 9 -1 19 2 23 8 8 13 55 13 55 0 0 -5 7 -10 16 -10 10 0 14 6 11
14 -7 17 33 56 55 56 21 0 31 -32 23 -70 -5 -24 -12 -30 -33 -31 -24 -2 -25
-2 -4 -6 12 -2 20 -9 17 -14 -4 -5 -1 -9 4 -9 21 0 11 -19 -18 -33 -17 -8 -52
-14 -85 -12 -41 1 -56 -2 -56 -12 0 -12 24 -18 60 -15 65 7 90 11 107 21 11 5
23 8 26 5 10 -10 25 60 15 73 -5 7 -4 13 4 17 10 5 10 7 1 12 -18 8 -16 49 4
65 11 10 17 11 20 3 3 -8 16 -7 45 3 60 20 76 31 83 52 4 13 19 22 45 26 22 4
42 11 45 15 9 14 -15 23 -29 11 -7 -6 -46 -20 -87 -31 -41 -10 -94 -26 -118
-35 -44 -16 -45 -16 -69 8 -22 22 -23 27 -13 64 12 43 27 55 58 47 11 -3 25 2
34 12 13 16 11 17 -33 12 -62 -7 -69 9 -35 80 6 12 18 22 28 22 10 0 20 4 23
8 5 9 -8 34 -18 33 -25 -4 -28 1 -22 39 3 22 5 40 4 39 -2 0 -9 -3 -16 -6z
m177 -359 c-8 -10 -16 -11 -22 -5 -5 5 -17 7 -26 4 -11 -4 -13 -3 -6 5 11 12
46 20 58 14 4 -2 3 -10 -4 -18z"/>
<path d="M1573 2780 c-10 -16 -10 -18 1 -14 7 3 21 -2 30 -12 9 -9 20 -14 23
-11 3 3 -2 13 -11 22 -9 9 -16 21 -16 26 0 15 -15 10 -27 -11z"/>
<path d="M1730 2787 c0 -10 -11 -22 -25 -29 -25 -11 -25 -31 0 -21 8 3 15 0
15 -6 0 -6 -7 -11 -16 -11 -10 0 -13 -6 -10 -18 4 -13 -1 -23 -19 -32 -14 -7
-25 -17 -25 -22 0 -4 -9 -8 -21 -8 -15 0 -19 -4 -15 -16 3 -9 6 -19 6 -22 0
-4 11 -8 24 -8 13 -1 23 3 23 10 -1 35 5 46 23 46 19 0 20 -4 14 -67 -4 -38
-8 -70 -10 -72 -10 -11 -44 34 -38 51 4 13 1 16 -10 12 -24 -9 -19 -32 14 -66
42 -41 37 -94 -11 -110 -9 -3 -7 -12 5 -31 15 -23 20 -24 32 -12 8 7 14 32 14
54 0 22 5 43 10 46 6 4 10 14 9 23 -3 35 1 53 11 47 8 -5 9 10 4 44 -6 43 -4
51 10 51 20 0 20 5 -1 40 -16 27 -16 31 2 70 17 38 17 42 2 58 -16 15 -17 15
-17 -1z"/>
<path d="M2373 2765 c7 -13 14 -20 15 -15 2 6 7 8 12 5 4 -3 6 4 3 15 -3 11
-13 20 -23 20 -16 0 -17 -3 -7 -25z"/>
<path d="M2720 2761 c0 -16 -4 -41 -10 -55 -6 -17 -6 -26 0 -26 6 0 10 8 10
19 0 10 7 24 15 31 18 15 16 51 -2 58 -9 2 -13 -7 -13 -27z"/>
<path d="M1084 2743 c-38 -51 -16 -118 32 -98 16 6 14 9 -13 17 -34 9 -47 31
-15 26 12 -2 17 3 16 20 0 12 5 22 13 22 7 0 13 -9 13 -20 0 -11 6 -20 13 -20
6 0 21 -13 32 -30 13 -19 22 -25 27 -17 4 6 -2 21 -13 33 -11 12 -19 30 -17
40 2 14 -4 20 -22 22 -13 2 -29 10 -35 18 -9 13 -14 10 -31 -13z"/>
<path d="M133 2716 c9 -7 17 -18 17 -24 0 -5 9 -8 20 -5 11 3 20 10 20 15 0 5
-4 7 -9 4 -5 -3 -14 1 -21 9 -7 8 -20 15 -29 15 -14 -1 -14 -2 2 -14z"/>
<path d="M453 2702 c-3 -13 -13 -22 -24 -22 -21 0 -82 -53 -73 -63 10 -10 26
-9 20 2 -9 13 23 35 52 36 20 0 27 7 33 29 5 17 6 32 3 35 -3 3 -7 -5 -11 -17z"/>
<path d="M577 2683 c-13 -12 -7 -23 13 -23 11 0 20 7 20 15 0 15 -21 21 -33 8z"/>
<path d="M2270 2674 c0 -9 -17 -23 -39 -32 -22 -9 -42 -25 -45 -35 -4 -18 -4
-18 14 -2 18 16 50 15 50 -2 0 -12 -93 -73 -111 -73 -21 0 -40 -22 -31 -36 4
-5 18 -10 32 -9 19 0 24 5 22 18 -2 12 4 21 17 24 12 3 21 9 21 13 0 4 9 10
20 13 13 3 20 0 20 -9 0 -19 72 -18 111 2 25 12 28 18 18 30 -16 19 -26 18
-32 -6 -7 -27 -67 -29 -67 -2 0 9 -3 26 -6 38 -3 13 1 28 11 38 18 17 40 22
30 6 -10 -16 43 -36 57 -22 9 9 7 15 -8 27 -10 8 -27 15 -36 15 -9 0 -20 5
-23 10 -10 15 -25 12 -25 -6z"/>
<path d="M2427 2683 c-16 -15 -5 -30 22 -31 29 -1 29 0 10 19 -21 21 -23 22
-32 12z"/>
<path d="M1937 2652 c-28 -29 -33 -42 -18 -42 5 0 18 16 30 35 25 42 23 43
-12 7z"/>
<path d="M2029 2653 c0 -25 -1 -26 -9 -8 -8 18 -9 17 -9 -7 -1 -19 4 -28 14
-28 10 0 15 11 15 35 0 41 -10 48 -11 8z"/>
<path d="M2551 2673 c0 -7 -12 -13 -26 -13 -14 0 -25 -4 -25 -8 0 -5 12 -9 28
-9 15 0 33 -2 41 -4 7 -2 16 2 19 10 3 10 0 12 -11 8 -10 -4 -17 0 -20 11 -3
9 -5 11 -6 5z"/>
<path d="M220 2643 c0 -8 12 -13 29 -13 22 0 32 -6 40 -27 7 -16 18 -39 27
-53 14 -24 15 -24 8 15 -3 22 -12 45 -20 51 -8 6 -14 16 -14 22 0 5 -16 12
-35 14 -24 3 -35 0 -35 -9z"/>
<path d="M504 2635 c-9 -23 2 -30 28 -18 l23 10 -23 12 c-18 10 -23 9 -28 -4z"/>
<path d="M590 2633 c1 -17 47 -41 61 -33 9 6 10 12 4 18 -14 13 -65 24 -65 15z"/>
<path d="M2652 2599 c-5 -19 -6 -38 -3 -44 3 -5 7 -1 9 10 2 11 9 26 15 33 7
9 7 16 -1 24 -8 8 -13 1 -20 -23z"/>
<path d="M434 2605 c-17 -12 -16 -13 4 -19 13 -4 22 -17 24 -33 5 -47 28 -39
28 10 0 36 -4 46 -20 50 -10 3 -27 -1 -36 -8z"/>
<path d="M745 2599 c-4 -6 -12 -8 -19 -6 -6 2 -19 -11 -28 -30 l-16 -35 35 4
35 4 -5 -43 c-5 -51 2 -59 31 -32 25 23 29 64 7 73 -15 6 -21 36 -7 36 4 0 8
9 8 20 0 21 -30 28 -41 9z"/>
<path d="M2560 2589 c-11 -19 -6 -58 6 -46 8 7 16 67 10 67 -3 0 -10 -9 -16
-21z"/>
<path d="M2770 2586 c0 -13 -7 -29 -15 -36 -8 -7 -15 -21 -15 -30 0 -10 -5
-20 -12 -22 -13 -5 -4 -38 11 -38 12 0 41 28 41 40 0 5 -8 11 -17 13 -11 3 -7
5 10 6 24 1 41 21 17 21 -5 0 -7 16 -5 35 3 20 0 35 -5 35 -6 0 -10 -11 -10
-24z"/>
<path d="M550 2559 c-19 -10 -28 -18 -18 -19 9 0 23 -3 31 -6 9 -3 20 3 26 15
15 27 2 31 -39 10z"/>
<path d="M2480 2565 c0 -8 -9 -15 -20 -15 -11 0 -29 -9 -40 -20 -20 -20 -20
-20 1 -20 11 0 18 -4 14 -9 -3 -5 -1 -12 5 -16 5 -3 10 3 10 13 0 18 24 31 55
32 19 0 37 -40 25 -55 -8 -10 -6 -15 9 -20 12 -3 21 -14 21 -23 0 -12 3 -13
11 -5 9 9 8 16 -5 28 -18 18 -21 35 -7 35 5 0 4 11 -2 25 -7 14 -18 25 -25 25
-7 0 -15 6 -18 14 -8 20 -34 29 -34 11z"/>
<path d="M620 2558 c0 -6 6 -19 14 -27 14 -15 86 -139 86 -147 0 -11 -31 -2
-36 11 -9 22 -24 18 -24 -5 0 -21 -7 -25 -28 -12 -7 5 -10 16 -6 25 3 10 1 17
-5 17 -7 0 -14 -7 -17 -15 -4 -10 -13 -13 -25 -10 -13 4 -19 1 -19 -9 0 -9 11
-16 28 -18 33 -4 37 -32 5 -36 -15 -2 -23 -10 -23 -23 0 -28 18 -23 61 16 39
35 90 47 104 25 4 -6 12 -9 18 -8 7 1 27 -13 45 -31 40 -41 51 -35 20 10 -50
73 -72 99 -85 99 -7 0 -13 5 -13 11 0 19 -69 127 -85 133 -8 3 -15 0 -15 -6z"/>
<path d="M1903 2546 c3 -7 1 -18 -5 -24 -6 -6 -6 -12 1 -16 12 -8 35 30 26 44
-9 15 -28 12 -22 -4z"/>
<path d="M946 2525 c4 -8 14 -15 24 -15 10 0 20 7 24 15 4 11 -2 15 -24 15
-22 0 -28 -4 -24 -15z"/>
<path d="M1941 2511 c-12 -16 -21 -34 -21 -40 0 -17 17 -13 24 7 3 9 10 27 16
40 13 30 5 28 -19 -7z"/>
<path d="M2634 2528 c-4 -7 -9 -20 -9 -29 -1 -16 0 -16 22 -2 24 16 26 34 6
40 -6 2 -15 -2 -19 -9z"/>
<path d="M487 2488 c-16 -23 -17 -23 -33 -3 -11 14 -18 16 -21 8 -3 -7 -11
-13 -18 -13 -8 0 -17 -4 -20 -10 -3 -6 1 -7 9 -4 9 3 16 3 16 0 0 -8 -69 -36
-83 -33 -7 1 -12 -5 -12 -13 0 -8 -4 -21 -8 -27 -11 -18 0 -33 25 -33 15 0 18
3 11 13 -6 6 -13 20 -16 30 -6 15 -3 16 13 7 13 -7 22 -6 32 3 14 14 53 37 62
37 3 0 6 -12 6 -26 0 -17 -6 -28 -20 -31 -23 -6 -26 -19 -6 -26 9 -3 21 4 30
19 9 13 26 24 37 24 11 0 18 4 14 10 -3 5 -3 21 1 35 9 36 59 36 68 0 4 -14
14 -25 23 -25 14 0 15 2 1 18 -8 9 -18 24 -21 33 -4 12 -13 15 -32 11 -16 -3
-30 0 -34 7 -6 8 -13 5 -24 -11z"/>
<path d="M1760 2500 c0 -5 6 -10 14 -10 7 0 16 -9 19 -21 5 -18 2 -20 -24 -14
-22 5 -29 3 -29 -9 0 -9 7 -16 15 -16 8 0 15 -4 15 -10 0 -5 -4 -10 -10 -10
-21 0 -9 -18 16 -23 23 -4 25 -2 19 21 -5 20 -1 30 16 43 14 11 20 22 16 33
-4 10 -11 15 -17 11 -5 -3 -19 -1 -30 5 -13 7 -20 7 -20 0z"/>
<path d="M1445 2471 c-18 -3 -31 -13 -33 -24 -3 -18 19 -47 36 -47 15 0 59 55
54 68 -4 13 -9 13 -57 3z"/>
<path d="M1630 2460 c-14 -11 -32 -20 -40 -20 -12 -1 -11 -4 3 -14 15 -12 16
-18 8 -35 -18 -33 -13 -35 15 -8 14 15 30 42 34 62 4 19 7 35 6 35 0 0 -12 -9
-26 -20z"/>
<path d="M1863 2461 c-7 -11 -9 -22 -6 -25 12 -12 28 -6 42 17 7 12 10 19 6
15 -5 -4 -13 -4 -19 2 -8 6 -16 3 -23 -9z"/>
<path d="M193 2444 c11 -23 16 -25 51 -19 48 7 84 30 62 38 -8 3 -17 -1 -20
-9 -7 -18 -45 -18 -70 1 -29 22 -36 18 -23 -11z"/>
<path d="M833 2460 c-28 -11 -29 -30 -4 -61 l20 -24 23 23 c12 12 17 22 11 22
-7 0 -15 -4 -18 -10 -8 -12 -35 -13 -35 -2 0 5 9 19 20 32 29 33 26 37 -17 20z"/>
<path d="M1305 2447 c6 -22 4 -27 -11 -27 -15 0 -19 -8 -20 -35 0 -26 4 -35
16 -35 9 0 25 -9 34 -19 11 -12 25 -17 34 -14 13 6 13 8 -4 13 -10 4 -19 11
-19 16 0 5 -4 15 -9 22 -5 8 -4 18 3 25 17 17 13 42 -10 63 -20 18 -20 18 -14
-9z"/>
<path d="M2393 2463 c-7 -2 -13 -9 -13 -14 0 -6 5 -7 10 -4 6 3 10 2 10 -4 0
-15 -47 -44 -59 -36 -6 3 -19 1 -28 -4 -10 -6 -12 -11 -5 -11 17 0 15 -29 -2
-36 -10 -4 -14 -16 -11 -34 4 -32 -19 -47 -55 -35 -16 5 -19 3 -14 -10 4 -11
15 -15 28 -13 12 3 28 -1 34 -9 19 -20 29 -16 30 15 4 69 10 95 30 115 17 16
22 18 22 6 0 -8 -5 -20 -12 -27 -9 -9 -8 -16 7 -30 18 -16 18 -16 6 1 -9 11
-10 17 -2 17 6 0 10 3 10 8 -4 21 3 31 24 34 17 2 21 9 19 26 -2 13 2 30 8 38
10 11 9 14 -6 13 -11 0 -25 -3 -31 -6z"/>
<path d="M2741 2446 c-9 -10 -9 -16 -1 -21 8 -5 8 -11 1 -19 -13 -16 -4 -27
15 -19 8 3 14 19 14 39 0 36 -10 43 -29 20z"/>
<path d="M1503 2399 c-5 -16 -11 -19 -31 -14 -22 5 -24 3 -19 -16 4 -13 1 -29
-5 -36 -6 -7 -12 -31 -13 -53 -4 -48 -19 -70 -48 -70 -21 0 -21 0 -2 -14 11
-7 35 -17 53 -21 26 -5 32 -3 32 10 0 9 -7 23 -16 32 -24 24 0 42 26 18 11
-10 21 -14 21 -9 1 5 2 16 3 24 0 9 13 16 34 18 35 4 43 -12 13 -27 -14 -8
-17 -19 -14 -50 4 -44 -13 -64 -32 -38 -17 24 -23 21 -17 -8 4 -21 0 -25 -18
-25 -19 0 -22 -4 -17 -29 5 -23 2 -30 -19 -40 -33 -15 -31 -16 -50 25 -14 29
-15 40 -6 55 7 11 8 19 3 19 -5 0 -13 9 -16 21 -7 21 -7 21 -21 -2 -7 -13 -16
-30 -20 -38 -4 -8 5 -24 24 -42 36 -34 34 -64 -4 -55 -14 4 -24 2 -24 -4 0
-22 -20 -8 -26 18 -4 15 -12 33 -18 41 -8 11 -8 15 2 18 6 3 12 11 12 19 0 11
-4 12 -19 2 -21 -13 -27 -72 -7 -65 7 3 12 -8 12 -24 1 -16 -2 -29 -6 -29 -4
0 -10 -11 -12 -25 -4 -17 -1 -25 8 -25 8 0 14 -6 14 -13 0 -8 9 -22 20 -32 12
-10 18 -25 16 -32 -3 -7 1 -13 9 -13 22 0 18 28 -5 40 -14 8 -19 17 -15 29 4
13 -1 20 -15 24 -29 7 -25 23 9 37 32 13 75 5 65 -12 -4 -6 -1 -9 6 -6 7 2 14
12 16 22 3 22 3 22 32 30 18 6 22 4 22 -14 0 -12 5 -18 10 -15 6 3 10 15 10
26 0 10 7 19 15 19 8 0 15 9 15 20 0 11 6 20 14 20 8 0 16 6 19 13 3 9 7 9 18
0 11 -9 18 -8 32 2 16 12 16 13 -5 28 l-23 15 28 11 c36 14 44 38 25 71 l-15
27 60 23 60 24 15 -22 c12 -18 18 -20 35 -10 19 10 20 11 3 23 -14 11 -15 18
-7 33 6 11 8 22 5 25 -8 8 -54 -17 -54 -30 0 -7 -9 -13 -21 -13 -11 0 -17 5
-14 10 3 6 -3 10 -14 10 -15 0 -21 -6 -21 -24 0 -19 -5 -24 -25 -22 -21 1 -25
5 -20 23 3 12 -4 42 -15 67 -21 51 -57 64 -67 25z m53 -73 c-3 -12 -18 -28
-33 -35 -23 -11 -29 -10 -40 5 -25 34 -10 58 44 73 31 9 39 -3 29 -43z m32
-133 c-16 -20 -38 -15 -38 7 0 27 33 44 41 22 4 -9 2 -23 -3 -29z"/>
<path d="M1144 2398 c-9 -14 6 -28 29 -28 20 -1 19 -3 -11 -28 -40 -33 -40
-42 -2 -42 19 0 30 5 30 14 0 7 7 19 15 26 9 7 13 21 10 31 -4 12 -1 19 6 19
7 0 9 3 5 7 -10 10 -76 11 -82 1z"/>
<path d="M156 2365 c-16 -16 -14 -35 3 -35 9 0 23 41 17 48 -2 1 -11 -4 -20
-13z"/>
<path d="M1788 2365 c-3 -3 -1 -22 5 -42 9 -29 8 -37 -5 -47 -22 -16 -20 -67
3 -73 23 -6 25 -36 3 -58 -20 -20 -10 -33 12 -15 12 11 17 11 23 1 6 -8 15 -9
34 -2 30 12 42 1 42 -38 1 -14 6 -26 13 -29 7 -2 12 5 12 16 0 20 24 37 48 33
13 -2 11 37 -3 59 -13 21 -26 9 -20 -19 4 -21 2 -30 -11 -35 -26 -10 -46 11
-31 35 9 14 9 21 -1 31 -10 10 -15 8 -28 -10 -23 -34 -48 -29 -40 8 5 27 3 30
-19 30 -30 0 -41 16 -25 36 9 10 16 11 26 3 10 -9 12 -3 7 28 -3 21 -11 45
-18 53 -7 8 -14 21 -16 28 -3 7 -7 10 -11 7z"/>
<path d="M2200 2358 c0 -6 -7 -20 -17 -30 -21 -23 0 -24 27 -1 24 21 25 29 5
37 -8 3 -15 0 -15 -6z"/>
<path d="M451 2348 c-1 -21 -37 -25 -44 -5 -3 8 -7 6 -12 -6 -5 -12 -1 -22 11
-32 14 -10 20 -10 23 -2 2 7 11 17 19 23 8 6 12 17 9 25 -4 10 -6 9 -6 -3z"/>
<path d="M527 2328 c-10 -10 -15 -23 -12 -28 4 -6 -1 -10 -9 -10 -9 0 -16 5
-16 10 0 11 -33 14 -43 4 -9 -9 4 -34 18 -34 15 0 45 -27 45 -39 0 -4 -14 -8
-31 -9 -23 0 -33 5 -41 24 -11 23 -38 34 -38 14 0 -5 -9 -2 -19 7 -11 9 -17
22 -14 30 5 12 -22 42 -37 42 -15 0 -41 -29 -35 -39 5 -8 11 -8 22 1 12 10 16
10 23 -1 4 -7 6 -19 3 -27 -3 -7 2 -16 11 -19 11 -4 14 -13 11 -25 -6 -19 10
-28 17 -9 3 9 52 1 89 -14 27 -12 59 25 64 73 2 24 9 47 16 51 6 4 7 10 3 12
-5 3 -17 -4 -27 -14z"/>
<path d="M2888 2324 c2 -13 8 -24 13 -24 5 0 9 2 9 4 0 2 3 11 6 19 3 9 -2 16
-14 19 -15 4 -18 1 -14 -18z"/>
<path d="M3 2314 c2 -31 35 -68 66 -77 12 -3 19 -1 15 4 -3 5 -11 9 -17 9 -7
0 -19 19 -27 42 -18 49 -40 63 -37 22z"/>
<path d="M2793 2329 c-8 -8 -6 -20 9 -45 25 -43 31 -39 22 15 -7 43 -13 48
-31 30z"/>
<path d="M762 2303 c15 -36 28 -53 40 -53 5 0 -1 18 -13 40 -26 45 -45 54 -27
13z"/>
<path d="M1383 2294 c-15 -16 -17 -50 -3 -59 10 -6 24 35 18 58 -2 13 -5 13
-15 1z"/>
<path d="M2707 2289 c-28 -32 -15 -45 16 -17 15 14 27 28 27 32 0 14 -27 5
-43 -15z"/>
<path d="M690 2279 c0 -9 7 -22 15 -29 8 -7 15 -21 15 -32 0 -19 2 -19 24 -5
17 12 26 13 35 4 8 -8 11 -8 11 1 0 7 -4 12 -10 12 -5 0 -10 7 -10 15 0 10
-10 15 -30 15 -17 0 -33 7 -39 18 -9 15 -10 15 -11 1z"/>
<path d="M1028 2283 c-10 -2 -18 -9 -18 -14 0 -5 8 -9 18 -9 22 -1 52 -23 52
-40 0 -7 -7 -10 -15 -6 -12 4 -14 0 -9 -19 8 -32 -9 -32 -34 0 -22 28 -42 33
-42 10 0 -8 3 -15 8 -15 4 0 13 -10 20 -21 10 -16 11 -24 2 -33 -8 -8 -13 -7
-20 4 -8 12 -12 12 -18 2 -15 -23 -42 -1 -48 40 -6 36 -8 38 -23 23 -11 -10
-12 -18 -5 -23 6 -4 13 -15 17 -24 3 -9 19 -25 34 -34 15 -10 41 -29 57 -42
l29 -24 13 23 c11 22 12 22 19 -10 5 -25 11 -31 26 -26 14 5 19 2 19 -13 0
-20 36 -59 46 -49 3 3 -3 16 -15 28 -12 13 -21 27 -21 33 0 5 -8 18 -17 28
-17 19 -16 20 7 39 l25 19 -32 -6 c-40 -8 -70 11 -52 32 6 8 20 14 30 14 12 0
19 7 19 18 0 19 39 62 57 62 14 0 43 -34 43 -50 0 -7 -12 -29 -27 -49 -15 -20
-19 -30 -9 -22 15 13 19 13 26 1 7 -12 10 -11 16 3 3 9 12 17 20 17 17 0 19
27 2 33 -22 8 6 42 33 42 20 0 24 -5 24 -32 0 -18 5 -35 12 -38 17 -6 17 24 1
75 -14 44 -31 51 -48 20 -6 -11 -18 -20 -28 -20 -9 0 -23 9 -30 20 -14 24 -60
27 -68 5 -9 -23 -32 -18 -50 10 -9 14 -19 24 -23 24 -3 -1 -14 -3 -23 -6z"/>
<path d="M2566 2281 c-4 -6 -16 -11 -27 -11 -10 0 -19 -6 -19 -14 0 -15 35
-11 57 7 7 5 24 6 38 3 14 -4 25 -2 25 4 0 5 -6 10 -12 10 -7 0 -23 3 -34 6
-12 3 -25 1 -28 -5z"/>
<path d="M620 2254 c-15 -38 -12 -51 13 -58 43 -11 53 -6 27 13 -21 17 -23 22
-12 45 10 22 9 26 -3 26 -9 0 -20 -12 -25 -26z"/>
<path d="M2974 2255 c-3 -13 -1 -37 4 -52 9 -25 10 -23 11 25 1 56 -5 67 -15
27z"/>
<path d="M130 2250 c-8 -5 -12 -10 -10 -12 35 -22 54 -28 62 -20 7 7 3 12 -11
17 -12 3 -19 11 -16 16 8 12 -6 11 -25 -1z"/>
<path d="M840 2236 c0 -8 -7 -16 -15 -20 -13 -4 -13 -9 -4 -25 10 -15 7 -26
-17 -64 -30 -48 -53 -58 -74 -32 -32 38 -140 96 -140 75 0 -5 7 -10 15 -10 8
0 15 -7 15 -15 0 -9 9 -15 25 -15 28 0 35 -27 9 -37 -10 -4 -31 9 -59 37 -39
38 -47 42 -67 32 l-23 -11 23 0 c27 -1 32 -41 5 -41 -13 0 -14 -3 -5 -12 7 -7
12 -20 12 -31 0 -24 18 -12 30 19 11 27 28 31 36 10 7 -19 -13 -56 -31 -56
-13 0 -13 -3 -3 -20 11 -17 10 -22 -2 -30 -18 -11 -18 -11 52 -44 64 -31 128
-42 128 -22 0 8 -15 13 -41 14 -49 2 -74 15 -96 48 -14 22 -14 27 -2 35 23 15
51 10 56 -10 2 -10 16 -24 29 -30 30 -13 45 -14 24 -2 -8 6 -14 22 -15 38 0
25 -3 28 -35 28 -19 0 -36 5 -37 10 -1 6 9 9 23 8 15 -1 24 4 24 13 0 16 16
19 25 4 3 -5 15 -10 26 -10 16 0 19 -5 14 -19 -5 -18 27 -61 46 -61 11 0 4 33
-9 38 -8 2 -8 10 0 28 10 21 16 24 40 19 21 -5 28 -3 28 8 0 10 -7 13 -20 10
-26 -7 -27 22 -1 36 14 8 22 6 33 -7 9 -9 13 -23 11 -29 -3 -7 8 -18 23 -23
21 -8 24 -14 16 -22 -16 -16 -15 -28 3 -28 8 0 15 7 15 15 0 9 9 15 24 15 19
0 25 -7 30 -32 4 -22 9 -29 15 -20 6 10 14 8 34 -8 35 -28 34 -41 -4 -69 -24
-18 -33 -20 -45 -11 -10 9 -14 9 -14 1 0 -6 -8 -11 -17 -10 -11 0 -13 3 -5 6
19 7 14 23 -7 23 -11 0 -23 5 -26 10 -4 6 -11 8 -16 4 -5 -3 -7 -10 -3 -15 3
-5 10 -7 15 -4 5 4 9 2 9 -4 0 -6 -9 -15 -20 -21 -24 -13 -16 -34 10 -27 21 5
33 -1 48 -28 10 -18 11 -17 12 13 0 30 2 32 34 32 25 0 35 5 39 20 4 15 14 20
36 20 17 0 31 5 31 10 0 6 -7 10 -15 10 -8 0 -15 7 -15 15 0 8 -6 15 -14 15
-8 0 -16 6 -19 14 -6 16 -113 99 -139 109 -10 3 -18 16 -18 27 0 11 -3 19 -7
18 -5 0 -16 2 -25 6 -20 9 -25 60 -8 71 6 3 10 10 10 16 0 5 -4 9 -10 9 -5 0
-10 -6 -10 -14z"/>
<path d="M2145 2230 c-3 -5 -1 -10 5 -10 6 0 8 -4 5 -10 -4 -6 5 -10 19 -10
24 0 25 2 14 20 -14 22 -33 26 -43 10z"/>
<path d="M2485 2212 c4 -38 4 -39 15 -22 14 21 12 37 -4 43 -11 4 -14 -1 -11
-21z"/>
<path d="M750 2177 c0 -13 -5 -28 -12 -35 -9 -9 -7 -12 10 -12 12 0 22 5 22
11 0 6 7 17 15 26 18 18 11 33 -16 33 -13 0 -19 -7 -19 -23z"/>
<path d="M424 2178 c-14 -18 -12 -60 4 -65 6 -3 12 0 12 6 0 6 7 11 15 11 19
0 19 10 -3 38 -15 19 -20 21 -28 10z"/>
<path d="M128 2156 c-3 -16 0 -27 9 -30 25 -10 30 -7 30 24 0 38 -32 43 -39 6z"/>
<path d="M1650 2172 c0 -19 12 -42 22 -42 14 0 5 43 -9 48 -7 2 -13 -1 -13 -6z"/>
<path d="M20 2146 c0 -8 16 -18 37 -23 27 -6 39 -15 44 -33 5 -16 7 -19 8 -7
1 9 7 17 14 17 6 0 3 6 -8 12 -11 6 -26 20 -33 30 -16 21 -62 25 -62 4z"/>
<path d="M2141 2107 c-11 -13 -10 -20 2 -37 17 -25 27 -9 18 29 -6 21 -8 22
-20 8z"/>
<path d="M1634 2101 c4 -5 3 -11 -1 -14 -5 -2 -2 -2 5 0 8 2 16 -6 19 -17 7
-26 23 -26 23 0 0 11 -7 20 -15 20 -8 0 -15 5 -15 10 0 6 -5 10 -11 10 -5 0
-8 -4 -5 -9z"/>
<path d="M1154 2085 c-7 -18 3 -35 21 -35 9 0 12 -6 9 -17 -5 -15 -4 -16 5 -3
6 9 7 18 1 24 -15 15 -12 26 5 26 8 0 15 5 15 10 0 16 -50 12 -56 -5z"/>
<path d="M430 2067 c0 -11 -9 -21 -19 -24 -12 -3 -23 -17 -26 -33 -3 -16 -18
-40 -32 -54 -27 -27 -72 -35 -75 -13 0 6 -2 18 -2 24 -1 7 -5 13 -9 13 -4 0
-11 0 -16 0 -4 0 -6 -11 -4 -24 5 -23 89 -103 99 -93 3 3 6 19 6 36 1 17 5 31
9 31 12 0 39 55 39 80 0 11 6 20 13 20 27 0 40 17 28 36 -10 18 -10 18 -11 1z"/>
<path d="M1600 2060 c6 -12 22 -26 36 -32 17 -8 24 -19 24 -39 0 -19 7 -32 21
-40 15 -8 18 -14 10 -22 -15 -15 -14 -40 1 -35 7 3 13 11 13 19 0 8 5 15 10
16 6 1 10 -15 9 -36 0 -27 3 -38 11 -34 18 6 30 -48 13 -58 -21 -13 -33 -4
-30 22 l2 24 -13 -23 c-16 -27 -27 -19 -27 20 0 15 -4 28 -10 28 -5 0 -10 -7
-10 -15 0 -8 -4 -15 -9 -15 -4 0 -6 -11 -3 -25 2 -14 10 -24 16 -23 6 2 13 0
14 -4 5 -18 1 -28 -12 -28 -17 0 -27 -35 -13 -49 14 -14 -17 -43 -38 -35 -12
5 -13 9 -4 14 7 5 9 16 5 26 -6 16 -7 16 -20 -1 -7 -10 -11 -26 -9 -35 3 -13
-4 -19 -29 -24 -29 -7 -30 -9 -13 -16 11 -4 28 -4 37 1 26 14 64 11 78 -6 9
-11 9 -22 0 -50 -10 -29 -16 -35 -40 -35 -15 0 -33 7 -40 15 -9 11 -16 12 -31
2 -25 -15 -24 -37 1 -37 23 0 27 -29 8 -49 -7 -6 -13 -26 -14 -44 -4 -118 -3
-117 -27 -128 -28 -13 -31 -36 -5 -45 22 -7 22 -13 -1 -43 -10 -14 -17 -30
-14 -37 2 -7 0 -21 -6 -32 -8 -16 -7 -21 4 -26 12 -4 15 4 15 39 0 31 4 44 13
42 19 -3 22 55 2 66 -15 8 -15 11 4 28 12 11 21 26 21 34 0 20 13 19 33 -3 21
-23 22 -75 1 -92 -8 -8 -20 -22 -25 -32 -9 -17 -7 -18 18 -12 32 8 80 41 87
59 3 8 -2 11 -15 8 -12 -4 -21 1 -25 13 -3 11 -12 31 -20 47 -16 29 -10 52 12
43 8 -3 11 0 7 10 -4 10 -13 14 -28 10 -19 -5 -24 -1 -30 21 -4 19 -2 31 9 38
8 6 16 26 18 45 3 38 23 51 31 20 3 -11 11 -20 18 -20 7 0 9 3 6 7 -4 3 -1 13
5 21 7 8 17 24 23 36 6 11 21 22 33 24 24 4 29 17 10 29 -7 4 -21 18 -32 30
-15 18 -16 25 -6 38 6 8 12 30 12 50 0 29 5 38 29 50 15 8 36 15 45 15 16 0
15 -2 -3 -22 -22 -25 -37 -91 -19 -85 6 2 16 18 21 35 14 40 24 50 35 32 13
-21 18 -10 12 33 -2 22 -10 37 -17 37 -8 0 -17 9 -20 20 -3 11 -11 20 -17 20
-5 0 -8 7 -4 15 3 8 1 15 -4 15 -6 0 -10 5 -10 11 0 5 8 9 18 7 23 -4 52 19
51 41 0 12 -4 11 -16 -6 -18 -27 -35 -30 -26 -5 14 38 47 70 77 76 27 6 29 8
13 17 -10 6 -29 8 -43 5 -17 -5 -24 -2 -24 9 0 8 -6 15 -13 15 -16 0 -51 -40
-41 -48 4 -4 9 -1 11 6 7 18 33 14 33 -5 0 -10 -8 -28 -18 -41 -16 -21 -21
-22 -45 -11 -20 9 -27 19 -27 41 0 16 -4 27 -9 24 -4 -3 -16 3 -26 14 -10 11
-24 20 -32 20 -7 0 -13 5 -13 10 0 6 -5 10 -10 10 -7 0 -7 -7 0 -20z"/>
<path d="M1514 2062 c-6 -4 -14 -17 -18 -29 -6 -17 -3 -23 8 -23 9 0 16 9 16
20 0 11 5 20 10 20 6 0 10 5 10 10 0 12 -10 13 -26 2z"/>
<path d="M483 2026 c17 -26 27 -34 42 -29 26 7 26 8 20 25 -4 10 -15 13 -30
10 -17 -3 -27 1 -31 12 -3 9 -10 16 -15 16 -4 0 2 -16 14 -34z"/>
<path d="M1542 2038 c-17 -17 -15 -25 10 -61 13 -18 23 -36 23 -42 0 -5 9 -11
20 -12 23 -3 62 23 52 34 -4 4 -13 1 -19 -5 -17 -17 -28 -15 -28 4 0 10 -6 14
-15 10 -18 -7 -20 15 -2 33 8 9 8 12 0 7 -7 -3 -15 4 -20 19 -7 21 -11 23 -21
13z"/>
<path d="M832 1998 c-9 -25 -9 -34 1 -40 21 -14 35 -9 39 15 10 59 -20 78 -40
25z"/>
<path d="M105 1991 c-8 -14 12 -23 36 -16 17 6 19 9 8 16 -18 11 -36 11 -44 0z"/>
<path d="M1908 1980 c13 -15 27 -20 38 -16 22 8 9 22 -30 32 l-30 7 22 -23z"/>
<path d="M950 1980 c0 -12 40 -34 48 -26 3 4 -3 13 -14 21 -22 17 -34 19 -34
5z"/>
<path d="M2978 1958 c-2 -18 0 -46 3 -63 5 -22 7 -13 8 33 1 67 -4 83 -11 30z"/>
<path d="M1497 1962 c2 -10 17 -26 33 -37 19 -13 26 -23 20 -29 -6 -6 -10 -21
-10 -34 0 -22 -2 -23 -17 -11 -15 12 -16 12 -10 -3 3 -9 1 -18 -5 -20 -6 -2
-3 -9 6 -17 14 -11 16 -11 16 3 0 9 5 16 10 16 6 0 10 8 10 18 0 10 5 23 12
30 17 17 57 15 64 -3 5 -11 10 -12 25 -2 10 6 19 17 19 24 0 14 -10 16 -48 13
-29 -2 -82 19 -82 32 0 12 -26 38 -38 38 -6 0 -8 -8 -5 -18z"/>
<path d="M148 1918 c-13 -20 -18 -21 -42 -10 -16 7 -26 8 -26 2 0 -6 12 -15
26 -21 21 -7 31 -6 44 6 24 22 39 19 50 -10 5 -14 17 -25 26 -25 16 0 16 2 -1
20 -10 11 -15 28 -12 40 8 30 -45 28 -65 -2z"/>
<path d="M1473 1905 c-1 -28 3 -35 18 -35 22 0 27 38 7 58 -19 19 -24 14 -25
-23z"/>
<path d="M1407 1921 c-17 -6 -17 -8 -4 -20 18 -14 19 -91 2 -92 -5 0 1 -5 14
-10 19 -8 21 -12 11 -24 -10 -12 -9 -15 4 -15 9 0 15 3 15 8 -4 21 3 23 21 7
20 -18 21 -18 14 -1 -6 16 -5 17 15 6 17 -9 21 -17 17 -36 -4 -14 -2 -24 4
-24 5 0 10 12 10 26 0 28 -41 69 -51 52 -11 -17 -48 47 -51 89 -3 34 -6 39
-21 34z"/>
<path d="M509 1874 c-10 -13 -10 -17 2 -25 20 -12 26 -11 33 7 12 32 -12 45
-35 18z"/>
<path d="M421 1863 c-9 -4 -2 -10 19 -19 18 -8 36 -14 41 -14 16 0 10 17 -8
24 -10 3 -22 8 -28 10 -5 2 -16 2 -24 -1z"/>
<path d="M1124 1845 c-4 -15 -13 -25 -24 -25 -10 0 -20 -8 -23 -19 -7 -27 30
-15 50 16 11 16 21 22 34 18 25 -8 24 11 0 25 -27 14 -30 13 -37 -15z"/>
<path d="M2976 1783 c9 -78 14 -79 14 -5 0 35 -4 62 -10 62 -6 0 -8 -21 -4
-57z"/>
<path d="M1195 1787 c-4 -15 -5 -34 -1 -42 3 -9 -3 -19 -16 -26 l-21 -11 24
-19 24 -18 -24 -25 c-24 -25 -24 -26 -4 -26 21 0 37 -29 34 -60 -1 -10 8 -16
26 -17 23 -1 24 0 8 6 -18 7 -18 9 5 32 14 14 25 34 25 44 0 29 41 33 50 5 6
-20 7 -20 25 2 12 16 29 23 52 23 52 0 43 27 -10 29 -23 0 -42 -3 -42 -8 0 -4
-9 -6 -20 -3 -22 6 -100 -21 -100 -35 0 -4 -4 -8 -10 -8 -5 0 -10 14 -10 30 0
17 -5 30 -11 30 -6 0 -9 8 -7 17 2 10 17 20 38 24 27 6 39 3 56 -12 26 -25 38
-24 22 1 -7 11 -19 20 -26 20 -8 0 -10 8 -6 25 7 30 -6 33 -26 5 -18 -25 -30
-26 -30 -2 0 9 -4 24 -9 31 -8 12 -11 9 -16 -12z"/>
<path d="M1901 1796 c-8 -10 -9 -16 -1 -21 13 -8 30 3 30 21 0 18 -14 18 -29
0z"/>
<path d="M2849 1796 c19 -23 59 -26 64 -4 4 15 -1 18 -35 18 -33 0 -38 -2 -29
-14z"/>
<path d="M965 1767 c-16 -12 -17 -17 -6 -30 10 -13 9 -20 -4 -41 -9 -14 -26
-26 -38 -28 -16 -2 -22 -11 -24 -38 l-4 -35 20 33 c12 18 29 32 40 32 13 0 21
8 23 23 2 14 10 22 23 23 40 2 65 15 65 35 0 18 -2 18 -23 5 -25 -17 -43 -10
-48 17 -4 16 -6 16 -24 4z"/>
<path d="M1105 1766 c-24 -17 -8 -41 28 -41 19 -1 27 4 27 17 0 26 -33 40 -55
24z"/>
<path d="M1356 1733 c-15 -14 -25 -28 -22 -31 3 -3 14 2 24 11 10 10 24 17 30
17 7 0 12 4 12 9 0 21 -18 19 -44 -6z"/>
<path d="M1466 1735 c8 -37 24 -57 24 -29 0 11 -7 29 -15 40 -14 18 -15 17 -9
-11z"/>
<path d="M1563 1738 c-17 -22 -22 -58 -8 -58 7 0 15 15 18 33 5 37 4 42 -10
25z"/>
<path d="M153 1699 c-8 -20 -9 -38 -4 -48 7 -12 11 -7 16 21 10 50 2 66 -12
27z"/>
<path d="M2979 1703 c-5 -59 -3 -225 2 -239 4 -11 8 41 8 114 1 72 -1 132 -4
132 -3 0 -5 -3 -6 -7z"/>
<path d="M1118 1680 c21 -23 22 -25 6 -37 -14 -10 -14 -13 -3 -13 8 0 19 4 24
8 15 10 14 52 -1 52 -7 0 -20 3 -30 7 -15 5 -14 2 4 -17z"/>
<path d="M394 1665 c36 -19 47 -19 40 0 -4 9 -19 15 -38 15 l-31 0 29 -15z"/>
<path d="M1022 1658 c2 -13 7 -21 12 -20 5 2 12 -2 16 -9 5 -6 15 -9 24 -6 18
7 22 27 6 27 -5 0 -10 7 -10 15 0 9 -10 15 -26 15 -21 0 -25 -4 -22 -22z"/>
<path d="M2448 1650 c-10 -17 -25 -30 -36 -30 -11 0 -23 -7 -26 -16 -10 -26
-7 -28 14 -9 19 17 20 17 29 -6 6 -15 10 -18 10 -8 1 9 10 28 22 43 16 21 24
24 39 16 24 -13 40 -13 40 0 0 7 -62 41 -74 40 0 0 -9 -14 -18 -30z"/>
<path d="M1424 1619 c-4 -7 4 -20 17 -30 23 -18 25 -18 44 2 17 17 18 21 5 29
-21 13 -57 12 -66 -1z"/>
<path d="M477 1599 c6 -6 9 -18 6 -25 -7 -20 4 -17 26 5 23 23 18 31 -18 31
-18 0 -22 -3 -14 -11z"/>
<path d="M940 1599 c-14 -4 -19 -7 -11 -8 11 -1 11 -4 1 -16 -19 -23 4 -18 25
5 22 24 18 29 -15 19z"/>
<path d="M1515 1602 c-2 -2 -1 -11 2 -19 4 -9 -2 -16 -16 -20 -11 -3 -21 -9
-21 -14 0 -12 31 1 54 23 11 10 23 18 28 18 4 0 8 4 8 9 0 8 -47 10 -55 3z"/>
<path d="M105 1581 c-7 -12 19 -26 63 -34 28 -6 32 -4 32 14 0 15 -5 19 -15
15 -8 -3 -22 -9 -30 -12 -9 -4 -17 1 -21 10 -7 18 -20 21 -29 7z"/>
<path d="M1010 1580 c0 -5 8 -14 18 -20 16 -10 15 -12 -5 -26 -13 -9 -23 -20
-23 -25 0 -17 29 -9 40 10 5 11 20 21 32 23 12 2 23 9 26 17 3 8 -1 12 -9 9
-8 -3 -20 2 -26 11 -11 14 -14 14 -23 1 -6 -10 -10 -11 -10 -2 0 6 -4 12 -10
12 -5 0 -10 -4 -10 -10z"/>
<path d="M1331 1583 c0 -6 -13 -14 -28 -16 l-28 -4 27 -2 c20 -1 26 -5 22 -16
-4 -11 -13 -13 -28 -9 -16 5 -15 1 9 -17 29 -23 43 -26 38 -8 -2 5 0 8 5 8 21
-4 42 2 42 12 0 6 -6 9 -14 6 -16 -7 -32 8 -39 38 -2 11 -5 15 -6 8z"/>
<path d="M2384 1556 c-8 -14 -21 -23 -28 -20 -23 9 -64 -14 -78 -43 -12 -25
-18 -28 -63 -27 -27 0 -45 -1 -38 -3 6 -2 1 -14 -14 -29 -24 -24 -25 -24 -59
-8 -18 9 -31 20 -29 25 6 9 -34 33 -42 25 -3 -3 5 -14 17 -24 28 -23 21 -57
-10 -49 -13 3 -20 0 -20 -9 0 -8 -7 -17 -15 -20 -8 -4 -15 -11 -15 -16 0 -12
-41 -47 -55 -48 -6 0 -11 -10 -12 -21 -3 -37 -21 -46 -39 -20 -9 12 -27 26
-41 32 -13 5 -21 13 -18 19 3 5 -1 10 -9 10 -10 0 -13 -6 -9 -16 4 -10 -1 -17
-16 -21 -35 -9 -24 -24 13 -18 27 6 38 2 55 -16 11 -13 21 -26 21 -31 0 -4 7
-8 15 -8 10 0 14 -10 12 -37 -2 -36 -1 -38 28 -36 17 1 40 5 51 8 23 5 59 69
49 85 -3 5 -1 19 5 30 8 16 8 20 -4 20 -20 0 -27 -14 -31 -63 -4 -56 -26 -69
-60 -37 -30 28 -31 40 -5 73 11 14 20 32 20 41 0 9 8 16 19 16 10 0 21 7 25
15 3 8 12 15 21 15 8 0 15 -7 15 -15 0 -8 5 -15 11 -15 7 0 9 11 6 30 -8 37 1
42 62 34 38 -5 52 -11 57 -26 3 -11 8 -17 11 -14 3 3 15 1 26 -5 19 -11 19
-11 1 15 -11 14 -24 26 -30 26 -16 0 -25 38 -12 46 6 4 27 8 47 9 20 1 46 3
59 4 12 0 22 6 22 12 0 6 10 24 21 41 18 24 27 29 53 25 29 -4 31 -2 33 29 2
40 -1 42 -23 10z"/>
<path d="M2455 1570 c-8 -14 4 -32 19 -27 6 2 19 -4 29 -14 18 -17 18 -17 0
-28 -15 -9 -13 -10 14 -11 22 0 37 -7 45 -20 7 -11 16 -20 20 -20 13 0 9 48
-4 53 -8 3 -6 6 5 6 9 1 17 -4 17 -10 0 -5 5 -7 10 -4 25 15 8 27 -29 21 -37
-6 -40 -4 -53 24 -9 21 -18 28 -30 24 -10 -3 -18 -1 -18 5 0 14 -17 14 -25 1z"/>
<path d="M660 1542 c0 -11 -9 -27 -21 -38 -13 -12 -19 -27 -16 -42 3 -15 -2
-31 -14 -43 -23 -23 -24 -52 -4 -69 8 -7 15 -19 15 -28 0 -11 -9 -14 -37 -10
-32 4 -43 0 -68 -23 -16 -16 -24 -29 -17 -29 7 0 20 9 29 20 21 24 36 25 67 4
23 -14 25 -14 39 14 13 27 13 31 -3 44 -24 21 -18 60 11 75 13 7 19 13 12 13
-7 0 -10 7 -6 16 3 9 0 20 -8 25 -10 6 -10 9 -1 9 6 0 15 -1 18 -2 4 -2 33 65
34 80 0 1 -7 2 -15 2 -8 0 -15 -8 -15 -18z"/>
<path d="M1100 1514 c0 -8 9 -14 20 -14 11 0 20 6 20 13 0 7 -9 13 -20 14 -11
1 -20 -4 -20 -13z"/>
<path d="M1400 1526 c0 -2 11 -24 25 -49 27 -47 55 -68 55 -41 0 8 -7 17 -15
20 -32 13 -14 26 25 19 58 -10 43 19 -18 35 -26 7 -53 14 -59 16 -7 2 -13 2
-13 0z"/>
<path d="M2442 1510 l-22 -19 21 -6 c26 -9 44 7 33 28 -8 13 -12 13 -32 -3z"/>
<path d="M1264 1498 c-5 -7 -2 -8 7 -3 9 5 11 5 4 -2 -5 -5 -29 -15 -52 -22
-40 -11 -42 -13 -41 -52 0 -22 -2 -42 -5 -46 -3 -3 -20 5 -36 17 -29 20 -33
20 -53 6 l-23 -16 31 -12 c17 -6 38 -24 47 -40 19 -33 42 -36 57 -9 16 30 12
36 -10 16 -24 -22 -26 -9 -4 34 18 35 45 54 68 45 11 -4 16 0 16 12 0 10 9 28
21 40 22 23 19 44 -6 44 -8 0 -17 -5 -21 -12z"/>
<path d="M1375 1491 c-3 -12 -13 -21 -21 -21 -8 0 -14 -5 -14 -11 0 -5 -4 -8
-9 -5 -5 3 -11 -10 -13 -28 -3 -28 -1 -33 12 -27 8 3 24 6 35 6 11 0 25 6 31
13 9 12 14 10 32 -13 12 -15 22 -23 22 -16 0 6 -9 20 -20 31 -12 12 -18 24
-16 29 3 4 -6 6 -19 3 -28 -5 -30 0 -14 30 6 11 8 22 6 25 -3 2 -8 -5 -12 -16z"/>
<path d="M104 1476 c3 -15 -2 -31 -13 -40 -12 -11 -16 -25 -13 -41 3 -18 0
-25 -12 -25 -18 0 -21 -15 -5 -25 6 -4 8 -13 5 -20 -2 -7 2 -16 11 -19 10 -4
14 -15 10 -31 -6 -32 5 -40 21 -14 8 12 9 19 1 19 -5 0 -8 4 -4 9 3 5 1 12 -4
16 -6 3 -8 12 -4 20 6 17 68 21 78 5 3 -5 19 -10 35 -10 16 0 32 5 35 10 4 6
-7 10 -24 10 -24 0 -31 4 -31 20 0 11 -4 20 -10 20 -5 0 -10 -7 -10 -15 0 -19
-10 -19 -38 1 -24 16 -28 44 -12 75 12 21 36 26 42 7 2 -6 11 -12 19 -13 12
-2 16 6 16 31 0 37 -13 44 -32 17 -13 -17 -51 -11 -40 7 3 5 -1 10 -10 10 -11
0 -14 -7 -11 -24z"/>
<path d="M1001 1471 c-11 -7 -10 -11 6 -20 16 -8 24 -6 38 9 18 19 17 20 -6
20 -13 0 -30 -4 -38 -9z"/>
<path d="M1836 1453 c4 -15 7 -29 8 -30 1 -1 14 1 29 4 32 6 31 29 -1 27 -12
-1 -20 3 -19 9 1 5 -4 12 -11 14 -10 4 -11 -2 -6 -24z"/>
<path d="M2365 1449 c-10 -11 -25 -17 -33 -14 -7 2 -10 0 -7 -5 3 -6 -1 -13
-9 -16 -19 -7 -22 -32 -3 -30 6 0 14 -3 17 -9 3 -5 -8 -10 -23 -11 -32 -1 -75
-34 -44 -34 9 0 17 5 17 10 0 6 5 10 11 10 7 0 9 -9 6 -21 -4 -15 -2 -19 10
-15 8 3 16 6 19 6 2 0 1 7 -3 16 -5 14 -2 16 20 10 15 -3 27 -2 27 3 0 5 3 16
6 25 4 12 0 16 -15 16 -12 0 -21 6 -21 15 0 8 9 15 19 15 11 0 23 4 26 10 3 5
19 7 35 3 19 -3 30 -1 30 6 0 6 -11 11 -25 11 -14 0 -25 5 -25 10 0 15 -13 11
-35 -11z"/>
<path d="M2476 1425 c7 -18 12 -18 44 0 l25 14 -37 1 c-29 0 -36 -3 -32 -15z"/>
<path d="M2790 1430 c0 -5 -6 -10 -14 -10 -38 0 -14 -103 28 -114 31 -8 30 0
-3 24 -51 35 -34 99 23 88 17 -4 23 -1 19 9 -6 15 -53 18 -53 3z"/>
<path d="M473 1404 c-13 -14 -23 -28 -23 -33 0 -4 -9 -16 -20 -26 -24 -22 -26
-41 -4 -49 22 -9 23 -8 17 15 -5 18 -2 19 22 13 25 -6 26 -5 16 14 -17 32 -13
50 12 58 12 4 31 13 42 20 18 13 18 14 -10 13 -18 -1 -39 -11 -52 -25z"/>
<path d="M2230 1382 c0 -15 5 -19 20 -15 24 6 21 26 -3 31 -11 2 -17 -3 -17
-16z"/>
<path d="M2976 1354 c5 -27 2 -32 -27 -47 -27 -13 -30 -17 -17 -22 35 -14 53
-1 56 39 2 21 -2 44 -8 50 -7 7 -9 2 -4 -20z"/>
<path d="M1030 1358 c0 -35 14 -58 33 -58 19 0 19 1 4 18 -10 10 -17 24 -17
30 0 6 -4 14 -10 17 -5 3 -10 0 -10 -7z"/>
<path d="M298 1354 c-12 -11 -10 -18 12 -42 12 -12 32 -22 45 -22 25 0 25 0 5
20 -11 11 -26 20 -34 20 -8 0 -16 7 -18 16 -2 9 -6 12 -10 8z"/>
<path d="M892 1348 c-7 -7 -18 -13 -25 -13 -7 0 -11 -9 -9 -19 2 -10 -1 -22
-7 -26 -6 -3 -13 -25 -15 -48 -4 -33 -1 -42 11 -42 11 0 13 4 6 13 -14 17 4
77 22 77 8 0 15 9 15 20 0 11 7 23 15 26 16 6 21 24 7 24 -4 0 -14 -6 -20 -12z"/>
<path d="M2076 1352 c-6 -10 33 -46 41 -38 3 2 2 14 -2 25 -6 21 -29 28 -39
13z"/>
<path d="M968 1333 c-10 -12 -13 -25 -8 -38 7 -19 9 -18 19 8 6 15 15 27 21
27 6 0 8 5 5 10 -9 15 -20 12 -37 -7z"/>
<path d="M1457 1311 c-4 -19 -17 -36 -34 -45 -15 -8 -22 -15 -15 -16 19 0 14
-20 -10 -41 -21 -17 -21 -18 -3 -12 31 10 45 24 45 45 0 11 8 22 19 25 14 4
19 13 18 39 -1 42 -12 44 -20 5z"/>
<path d="M1211 1294 c-12 -15 -21 -36 -20 -48 1 -18 3 -17 12 7 6 15 17 27 24
27 7 0 13 9 13 20 0 26 -4 25 -29 -6z"/>
<path d="M1697 1302 c-24 -26 -21 -33 11 -26 34 9 34 8 26 28 -8 21 -17 20
-37 -2z"/>
<path d="M2130 1305 c-11 -13 -11 -18 2 -31 14 -14 16 -14 20 4 8 30 -6 47
-22 27z"/>
<path d="M2173 1282 c-15 -40 -58 -72 -97 -72 -15 0 -18 -5 -20 -40 -1 -8 -12
-20 -25 -26 -14 -7 -28 -19 -33 -28 -7 -13 -3 -13 34 -2 36 10 42 16 40 34 -2
15 4 25 20 31 58 23 75 24 70 5 -2 -8 9 -11 30 -10 48 4 48 4 48 27 0 11 9 34
21 51 12 16 19 32 16 35 -9 8 -27 -7 -27 -23 0 -8 -7 -14 -15 -14 -11 0 -14
-7 -9 -25 8 -34 -21 -45 -48 -18 -16 17 -18 24 -9 42 7 12 22 21 34 21 26 0
47 17 47 38 0 12 -3 12 -15 2 -12 -10 -18 -10 -30 0 -13 11 -18 7 -32 -28z"/>
<path d="M2567 1294 c-2 -2 -2 -15 0 -28 4 -17 12 -23 29 -23 13 0 27 3 30 8
3 5 0 9 -5 9 -6 0 -20 9 -30 19 -11 11 -21 17 -24 15z"/>
<path d="M2724 1282 c1 -16 34 -37 43 -28 7 7 -6 25 -26 36 -15 7 -18 6 -17
-8z"/>
<path d="M985 1264 c-20 -32 -12 -44 14 -20 11 10 25 15 30 11 7 -3 11 2 11
14 0 30 -34 27 -55 -5z"/>
<path d="M357 1258 c-10 -5 -25 -7 -34 -4 -9 4 -24 -1 -34 -10 -10 -9 -27 -14
-39 -11 -11 3 -23 1 -26 -4 -3 -5 13 -9 35 -9 23 0 41 5 41 10 0 14 21 12 39
-4 14 -12 18 -11 34 9 19 27 11 39 -16 23z"/>
<path d="M1117 1250 c-9 -11 -17 -33 -16 -48 0 -24 1 -25 8 -7 5 11 18 28 30
39 11 10 18 23 15 27 -8 14 -18 11 -37 -11z"/>
<path d="M542 1222 c-20 -23 -21 -27 -7 -35 21 -11 27 -5 31 33 4 36 5 36 -24
2z"/>
<path d="M910 1230 c-8 -11 -20 -20 -28 -20 -7 0 -10 -4 -7 -10 10 -15 35 -12
35 5 0 23 15 18 30 -10 18 -34 32 -32 18 3 -20 47 -32 55 -48 32z"/>
<path d="M1800 1230 c0 -22 -12 -25 -42 -9 -32 17 -35 0 -4 -26 22 -19 27 -30
22 -50 -4 -14 -3 -25 2 -25 14 0 32 23 32 41 0 9 8 20 17 23 12 5 14 9 5 18
-7 7 -12 20 -12 30 0 10 -4 18 -10 18 -5 0 -10 -9 -10 -20z"/>
<path d="M640 1216 c0 -9 5 -16 10 -16 6 0 10 -8 10 -18 0 -10 3 -22 6 -25 13
-13 73 32 74 55 0 4 -16 4 -35 1 -21 -3 -41 -1 -50 7 -12 10 -15 10 -15 -4z"/>
<path d="M1293 1213 c10 -10 25 -28 35 -41 l17 -22 12 25 c11 24 10 25 -10 19
-12 -3 -19 -3 -15 1 4 5 -4 14 -18 22 -35 18 -41 16 -21 -4z"/>
<path d="M150 1205 c0 -11 -5 -15 -15 -11 -13 4 -14 2 -5 -14 12 -23 23 -25
51 -10 19 11 27 40 10 40 -5 0 -16 3 -25 6 -11 4 -16 1 -16 -11z"/>
<path d="M1006 1205 c-16 -12 -17 -15 -4 -15 9 0 18 -7 22 -15 10 -26 26 -16
26 15 0 33 -14 38 -44 15z"/>
<path d="M1230 1206 c0 -8 -7 -16 -15 -20 -8 -3 -15 0 -15 7 0 16 -33 17 -48
1 -7 -8 1 -15 31 -24 74 -24 75 -43 3 -49 -26 -2 15 -20 64 -30 45 -8 57 -7
66 4 6 8 15 11 20 7 4 -4 2 1 -5 10 -10 13 -18 15 -31 8 -20 -11 -30 -4 -30
22 0 10 -6 17 -12 16 -9 -2 -12 8 -12 30 1 17 -2 32 -7 32 -5 0 -9 -6 -9 -14z"/>
<path d="M2391 1203 c6 -7 23 -13 38 -13 25 1 25 1 6 12 -30 18 -58 18 -44 1z"/>
<path d="M2875 1204 c-22 -7 -30 -12 -17 -10 19 4 22 0 20 -16 -2 -12 3 -23
11 -26 10 -3 12 0 8 12 -5 12 0 16 20 16 21 0 23 3 14 14 -9 11 -9 15 1 19 30
12 -19 5 -57 -9z"/>
<path d="M2970 1193 c0 -16 5 -35 10 -43 7 -11 10 -4 10 28 0 23 -4 42 -10 42
-5 0 -10 -12 -10 -27z"/>
<path d="M0 1203 c0 -5 17 -17 38 -28 30 -17 37 -26 35 -49 -2 -21 2 -26 13
-22 9 3 21 6 27 6 6 0 -1 13 -16 28 -31 33 -34 47 -9 61 9 6 12 11 7 11 -6 0
-17 -6 -24 -12 -11 -10 -14 -10 -18 0 -5 13 -53 17 -53 5z"/>
<path d="M357 1174 c-15 -8 -27 -19 -27 -24 0 -6 -13 -10 -29 -10 -22 0 -29
-4 -27 -17 3 -23 46 -31 46 -9 0 8 9 18 20 21 11 4 18 11 15 16 -4 5 5 9 19 9
14 0 26 4 26 9 0 18 -15 19 -43 5z"/>
<path d="M2753 1167 c20 -21 24 -21 45 -9 27 18 27 18 -25 26 l-42 6 22 -23z"/>
<path d="M1676 1155 c-21 -16 -13 -35 15 -35 11 0 29 -4 39 -10 29 -16 34 25
4 45 -28 18 -34 18 -58 0z"/>
<path d="M548 1138 c-3 -20 -12 -24 -68 -33 -45 -7 -59 -13 -47 -18 11 -4 23
-4 28 -1 5 3 9 2 8 -3 -4 -21 3 -21 22 -2 l22 22 17 -23 c16 -22 18 -22 27 -5
7 11 17 16 27 12 13 -5 14 -11 5 -34 -27 -69 -21 -100 14 -81 12 6 37 11 55 9
23 -1 32 3 32 14 0 8 3 14 8 14 4 -1 16 -1 27 0 15 1 17 3 6 10 -9 6 -10 10
-2 16 8 5 6 12 -8 24 -11 10 -18 21 -14 25 3 3 -1 6 -10 6 -21 0 -22 -14 -2
-30 23 -19 0 -42 -33 -33 -17 4 -23 2 -18 -6 9 -14 -22 -27 -35 -14 -6 6 -6
19 0 36 9 22 7 29 -14 46 -15 11 -25 29 -25 45 0 32 -17 35 -22 4z"/>
<path d="M1532 1129 c-10 -16 -10 -20 3 -25 8 -3 12 -10 9 -15 -3 -5 0 -9 6
-9 7 0 14 9 17 20 3 11 12 20 19 20 17 0 18 16 3 26 -6 3 -15 0 -20 -7 -7 -11
-11 -11 -17 -2 -6 9 -11 7 -20 -8z"/>
<path d="M1810 1120 c0 -18 2 -19 20 -8 11 7 20 16 20 20 0 5 -9 8 -20 8 -13
0 -20 -7 -20 -20z"/>
<path d="M728 1113 c-8 -10 -5 -13 11 -13 20 0 25 -9 22 -36 -2 -19 23 -34 39
-24 10 7 11 10 3 10 -18 0 -16 30 3 51 14 16 12 17 -26 21 -26 2 -45 -1 -52
-9z"/>
<path d="M1030 1116 c0 -7 -19 -26 -41 -41 -42 -27 -49 -26 -62 10 -3 6 -8 6
-13 2 -5 -4 -2 -12 6 -17 11 -7 9 -12 -11 -29 -13 -11 -37 -23 -52 -26 -16 -4
-31 -13 -34 -21 -7 -20 37 -54 66 -51 31 3 39 24 9 23 -28 -1 -32 31 -6 47 13
8 22 5 42 -14 18 -17 37 -24 63 -24 36 0 38 -2 41 -32 4 -39 19 -43 28 -8 5
19 13 25 35 25 37 0 38 20 2 21 -16 1 -35 2 -43 3 -8 1 -25 7 -38 14 -12 7
-27 10 -33 7 -14 -9 -59 3 -59 15 0 15 40 32 77 32 29 0 33 3 28 19 -4 11 -2
19 4 19 6 0 11 -6 11 -12 0 -7 5 -5 11 5 8 13 14 15 30 7 13 -8 19 -8 19 0 0
6 -8 13 -17 16 -10 3 -26 10 -35 15 -24 12 -28 11 -28 -5z"/>
<path d="M1875 1118 c-7 -7 -8 -32 -5 -60 4 -27 3 -51 -2 -54 -4 -3 -8 -14 -8
-25 0 -12 -7 -19 -19 -19 -10 0 -29 -9 -42 -19 l-24 -20 23 -16 c30 -22 28
-39 -3 -31 -49 12 -94 -30 -95 -87 0 -15 3 -16 20 -7 22 12 27 40 8 40 -7 0
-5 5 5 11 10 6 25 8 33 5 8 -3 17 1 20 9 4 8 14 15 24 15 10 0 20 5 22 12 7
21 29 -3 23 -25 -5 -18 -4 -19 5 -7 6 8 17 27 25 41 14 26 14 26 -22 25 -21
-1 -38 4 -40 12 -3 7 3 12 14 12 26 0 82 58 66 68 -9 6 -10 20 -4 52 5 25 9
39 10 33 1 -7 6 -13 12 -13 6 0 9 12 7 28 -3 29 -34 41 -53 20z"/>
<path d="M2710 1120 c0 -6 -10 -10 -22 -9 -43 4 -58 -1 -58 -18 0 -13 3 -14
12 -5 14 14 42 16 33 2 -3 -5 -3 -10 2 -10 4 0 18 -3 29 -6 27 -7 40 22 19 42
-9 9 -15 11 -15 4z"/>
<path d="M139 1101 c12 -21 5 -31 -20 -31 -9 0 -19 -7 -23 -15 -3 -8 -13 -15
-21 -15 -9 0 -13 4 -10 10 3 5 0 7 -8 4 -18 -6 -18 -32 0 -38 8 -3 36 6 63 21
42 22 50 32 50 55 0 21 -5 28 -20 28 -17 0 -19 -3 -11 -19z"/>
<path d="M856 1084 l-28 -36 37 24 c36 23 46 39 28 45 -4 2 -21 -13 -37 -33z"/>
<path d="M358 1083 c-14 -16 -28 -37 -30 -48 -6 -30 19 -75 42 -75 24 0 26 15
4 24 -17 7 -11 40 12 67 15 17 19 59 6 59 -5 0 -20 -12 -34 -27z"/>
<path d="M1155 1090 c-3 -11 -11 -20 -17 -20 -6 0 -9 -3 -5 -6 3 -3 -4 -15
-16 -27 l-22 -22 21 -3 c12 -2 24 -11 27 -22 5 -20 47 -47 47 -30 0 5 -5 10
-12 10 -6 0 -8 3 -5 6 4 4 -1 20 -11 36 -16 27 -16 31 0 58 9 16 13 32 8 35
-5 3 -11 -4 -15 -15z"/>
<path d="M1424 1102 c4 -6 21 -21 38 -34 25 -17 30 -18 25 -5 -4 11 -2 14 9
10 8 -3 17 -15 20 -27 3 -12 15 -26 27 -31 19 -9 24 -34 5 -27 -5 1 -8 -5 -8
-13 0 -21 17 -19 30 4 6 13 7 22 0 26 -5 3 -7 12 -4 19 3 8 -5 16 -20 20 -17
4 -26 13 -26 26 0 24 -7 28 -60 36 -30 5 -41 4 -36 -4z"/>
<path d="M1384 1082 c8 -23 -37 -109 -54 -104 -8 3 -10 0 -5 -8 6 -9 4 -11 -4
-5 -7 4 -22 -2 -37 -16 -18 -17 -21 -25 -12 -36 6 -7 8 -16 4 -20 -3 -4 -13 3
-22 15 -8 12 -21 19 -30 15 -11 -4 -12 -8 -3 -19 9 -11 9 -21 0 -42 -12 -26
-12 -26 6 -9 11 9 27 17 36 17 16 0 30 28 25 51 -2 10 7 13 30 11 25 -2 32 2
32 17 0 10 11 35 25 55 14 20 25 41 25 46 0 6 4 10 9 10 5 0 7 9 4 20 -3 11
-12 20 -20 20 -9 0 -12 -6 -9 -18z"/>
<path d="M2838 1065 c-20 -40 -21 -40 21 -19 21 11 30 21 27 31 -3 8 -6 17 -6
19 0 2 -6 4 -12 4 -7 0 -21 -16 -30 -35z"/>
<path d="M2012 1078 c-7 -9 -23 -13 -40 -10 -20 3 -31 -1 -35 -12 -5 -13 1
-16 32 -16 39 0 66 19 59 41 -3 8 -8 7 -16 -3z"/>
<path d="M1690 1071 c0 -15 -31 -21 -51 -10 -33 17 -42 5 -19 -24 24 -30 40
-35 40 -11 0 9 9 18 20 21 17 5 30 33 15 33 -3 0 -5 -4 -5 -9z"/>
<path d="M2141 1063 l-33 -4 22 -16 c13 -9 40 -17 61 -17 l38 -1 -21 23 c-12
12 -24 21 -27 20 -3 0 -21 -3 -40 -5z"/>
<path d="M250 1049 c-23 -7 -23 -7 7 -8 17 -1 38 -4 47 -7 9 -3 16 -2 16 4 0
13 -40 20 -70 11z"/>
<path d="M1416 1038 c-2 -7 -8 -27 -13 -45 -9 -26 -8 -31 4 -26 8 3 19 0 24
-8 7 -11 9 -10 9 5 0 11 7 28 16 38 14 14 14 20 4 33 -15 18 -39 20 -44 3z"/>
<path d="M2060 1036 c0 -8 -6 -17 -12 -20 -7 -3 -3 -3 9 0 14 3 29 -2 42 -15
24 -24 27 -41 9 -42 -7 0 -3 -4 10 -9 18 -8 21 -15 16 -35 -8 -34 12 -58 43
-50 13 3 41 1 63 -5 28 -7 45 -7 64 1 20 10 29 9 42 -2 16 -13 16 -12 0 19
-17 34 -22 35 -91 14 -18 -5 -41 -5 -57 0 -24 9 -27 14 -25 52 2 37 0 42 -16
38 -18 -5 -67 39 -67 60 0 4 -7 8 -15 8 -8 0 -15 -6 -15 -14z"/>
<path d="M2698 1023 c-18 -5 -24 -28 -10 -37 12 -7 27 7 28 27 1 9 1 16 0 16
0 -1 -9 -3 -18 -6z"/>
<path d="M134 996 c-11 -23 -10 -24 12 -16 13 5 30 7 38 4 22 -9 29 14 7 25
-30 17 -45 13 -57 -13z"/>
<path d="M1774 1012 c-16 -11 -32 -45 -27 -59 8 -23 33 -14 33 11 0 14 5 28
10 31 12 7 13 25 3 25 -5 0 -13 -4 -19 -8z"/>
<path d="M2557 997 c-3 -8 -2 -20 3 -27 6 -10 13 -9 34 7 14 11 22 23 19 27
-12 11 -51 6 -56 -7z"/>
<path d="M258 989 c-23 -13 -23 -39 0 -39 18 0 45 34 35 44 -8 8 -15 7 -35 -5z"/>
<path d="M511 988 c-1 -9 -7 -19 -13 -21 -8 -3 -5 -6 6 -6 16 -1 16 -3 5 -17
-10 -13 -10 -17 2 -24 7 -5 14 -15 15 -22 2 -32 5 -36 25 -41 29 -8 49 2 49
24 0 14 -9 21 -30 26 -22 4 -32 13 -36 32 -3 14 -9 35 -14 46 -7 16 -9 17 -9
3z"/>
<path d="M1944 993 c-16 -3 -20 -10 -16 -28 5 -31 32 -42 32 -13 0 19 4 20 45
16 40 -5 58 3 37 16 -13 8 -76 14 -98 9z"/>
<path d="M2218 992 c-16 -6 -15 -9 2 -32 l19 -25 -2 32 c-1 18 -2 33 -2 32 0
0 -8 -3 -17 -7z"/>
<path d="M1498 963 c-10 -12 -16 -40 -17 -77 0 -33 -6 -63 -12 -67 -7 -4 -26
-2 -43 4 -17 6 -25 12 -18 15 6 2 12 8 12 13 0 6 -4 8 -9 4 -5 -3 -12 -1 -16
5 -11 18 -25 11 -25 -12 0 -30 11 -43 35 -43 16 0 21 -8 23 -37 3 -33 0 -38
-17 -38 -11 0 -25 -9 -31 -20 -9 -17 -7 -26 13 -50 23 -27 25 -28 30 -9 3 10
-1 26 -9 34 -10 10 -11 16 -3 21 6 3 15 0 20 -7 5 -8 9 -9 9 -4 5 65 13 92 33
114 45 50 47 56 37 90 -5 20 -5 42 0 57 11 29 8 30 -12 7z"/>
<path d="M1610 971 c0 -20 25 -29 43 -17 25 19 21 26 -13 26 -16 0 -30 -4 -30
-9z"/>
<path d="M0 956 c0 -18 30 -30 43 -17 5 5 6 14 3 20 -10 16 -46 13 -46 -3z"/>
<path d="M736 961 c-4 -5 -1 -11 4 -13 6 -2 12 -10 13 -18 5 -29 18 -40 41
-34 13 3 31 -2 46 -14 36 -27 53 -31 67 -17 10 11 4 15 -28 20 -21 4 -45 13
-53 20 -7 7 -21 13 -32 12 -14 -2 -20 5 -22 26 -3 26 -25 37 -36 18z"/>
<path d="M188 933 c-22 -5 -23 -19 -2 -27 25 -9 34 -7 34 8 0 18 -10 24 -32
19z"/>
<path d="M379 929 c-7 -43 -5 -60 8 -70 13 -11 14 -8 7 27 -6 35 -13 55 -15
43z"/>
<path d="M1120 911 c0 -11 -5 -23 -11 -26 -6 -5 -4 -12 8 -20 21 -15 37 -9 29
11 -3 8 1 17 9 21 13 5 13 7 -2 19 -25 19 -33 17 -33 -5z"/>
<path d="M1980 904 c-5 -13 -17 -24 -25 -24 -9 0 -13 -4 -10 -10 10 -17 32
-11 59 14 31 28 32 32 5 39 -15 4 -22 -1 -29 -19z"/>
<path d="M2934 923 c11 -3 26 -12 34 -20 18 -18 29 -8 12 12 -7 8 -24 14 -39
14 -20 -1 -21 -3 -7 -6z"/>
<path d="M130 911 c0 -6 -7 -11 -16 -11 -12 0 -15 -6 -11 -21 3 -12 0 -22 -9
-26 -18 -7 -18 -23 1 -23 8 0 17 12 21 28 4 15 13 32 21 39 9 7 11 13 4 18 -6
3 -11 1 -11 -4z"/>
<path d="M443 913 c-14 -3 -20 -9 -16 -19 8 -20 31 -17 43 6 6 11 7 19 3 19
-4 -1 -18 -4 -30 -6z"/>
<path d="M1650 905 c-6 -8 -9 -19 -5 -25 3 -5 -1 -13 -9 -16 -9 -3 -16 -11
-16 -17 0 -6 -6 -18 -14 -26 -17 -19 -25 -96 -11 -96 6 0 9 10 7 22 -1 12 2
24 7 27 5 3 7 15 4 26 -5 19 7 25 43 21 5 0 10 15 11 34 1 20 7 42 13 50 10
12 10 15 -3 15 -8 0 -20 -7 -27 -15z"/>
<path d="M2600 910 c0 -6 -12 -8 -27 -5 -26 6 -27 5 -9 -9 10 -8 19 -26 20
-40 1 -29 17 -34 36 -11 11 13 10 14 -4 9 -21 -8 -22 19 -1 40 8 8 15 17 15
20 0 3 -7 6 -15 6 -8 0 -15 -5 -15 -10z"/>
<path d="M187 862 c-21 -23 -21 -32 -3 -32 7 0 16 10 19 22 8 29 4 32 -16 10z"/>
<path d="M450 850 c0 -20 -63 -60 -94 -60 -10 0 -13 -6 -10 -15 4 -9 -1 -17
-12 -21 -11 -4 -26 -13 -35 -21 -9 -8 -29 -13 -44 -11 -16 2 -30 -2 -32 -9 -3
-8 5 -13 20 -13 13 0 32 -8 41 -19 16 -17 16 -20 0 -35 -21 -21 -13 -30 11
-13 9 8 19 24 20 38 1 13 3 29 4 36 1 13 104 83 121 83 6 0 10 6 10 14 0 8 6
16 14 19 9 4 12 14 9 26 -7 27 -23 27 -23 1z"/>
<path d="M703 863 c-20 -7 -15 -33 6 -33 11 0 18 6 17 15 -3 19 -8 23 -23 18z"/>
<path d="M659 850 c-11 -6 -15 -18 -11 -35 3 -21 0 -27 -17 -32 -30 -8 -26
-20 8 -25 29 -4 29 -4 33 49 2 29 3 53 3 53 0 0 -7 -5 -16 -10z"/>
<path d="M2473 853 c-14 -5 -17 -29 -5 -37 4 -2 13 4 20 14 12 20 5 30 -15 23z"/>
<path d="M1902 818 c-8 -23 -8 -36 0 -51 l11 -21 8 22 c5 12 15 22 23 22 27 0
26 18 -2 39 l-28 20 -12 -31z"/>
<path d="M870 820 c-17 -31 -8 -41 17 -20 19 15 20 20 8 30 -11 9 -16 7 -25
-10z"/>
<path d="M1232 814 c-1 -14 2 -33 8 -42 7 -13 9 -7 10 26 0 45 -14 59 -18 16z"/>
<path d="M2029 811 c-20 -16 -22 -22 -11 -33 11 -11 16 -10 26 5 17 22 32 22
45 0 5 -10 13 -15 17 -11 4 5 14 2 22 -5 12 -9 16 -9 19 1 3 6 18 12 34 12 23
0 29 -5 29 -20 0 -18 3 -19 20 -10 11 6 20 18 20 27 0 30 -30 40 -100 35 -44
-3 -70 -1 -74 7 -10 16 -20 14 -47 -8z"/>
<path d="M1760 791 c-15 -28 -12 -33 10 -19 21 13 27 38 10 38 -5 0 -14 -9
-20 -19z"/>
<path d="M2275 800 c-11 -5 -14 -9 -7 -9 6 -1 12 -8 12 -17 0 -13 6 -15 27 -9
38 9 40 13 17 30 -22 16 -22 17 -49 5z"/>
<path d="M44 775 c-9 -14 -23 -25 -30 -25 -8 0 -14 -9 -14 -20 0 -11 7 -20 15
-20 8 0 15 9 15 20 0 19 14 25 50 22 25 -2 70 9 70 18 0 5 -13 3 -29 -3 -23
-8 -33 -8 -45 2 -9 7 -13 17 -10 22 13 21 -7 7 -22 -16z"/>
<path d="M1526 793 c-4 -5 -13 -8 -19 -8 -7 0 -12 -12 -12 -27 -1 -14 -6 -32
-12 -40 -15 -19 -22 -54 -13 -68 10 -16 31 -4 24 14 -3 7 1 20 8 27 7 8 13 23
13 33 0 15 17 32 43 42 1 1 0 9 -4 18 -7 17 -16 20 -28 9z"/>
<path d="M2429 784 c-18 -22 4 -42 26 -24 19 16 19 26 1 33 -8 3 -20 -1 -27
-9z"/>
<path d="M1320 774 c0 -7 -11 -21 -25 -30 -14 -9 -25 -22 -25 -29 0 -18 50 -6
58 14 3 9 11 20 19 24 19 12 16 24 -7 30 -13 3 -20 0 -20 -9z"/>
<path d="M498 759 c-10 -10 -24 -16 -32 -13 -8 3 -17 1 -20 -5 -4 -6 5 -13 19
-17 19 -5 32 -1 51 17 13 12 24 26 24 31 0 14 -24 7 -42 -13z"/>
<path d="M1633 763 c-4 -10 3 -24 20 -39 18 -15 24 -28 20 -43 -4 -15 -1 -21
12 -21 10 0 23 -7 29 -15 8 -11 19 -13 41 -7 19 5 25 11 17 16 -7 4 -17 4 -24
0 -6 -4 -8 -3 -5 3 8 13 -47 73 -67 73 -10 0 -16 9 -16 25 0 28 -17 34 -27 8z"/>
<path d="M1834 759 c-7 -11 22 -47 30 -38 8 7 -5 49 -15 49 -4 0 -11 -5 -15
-11z"/>
<path d="M2095 746 c-6 -13 -3 -21 8 -28 21 -11 22 -41 2 -58 -22 -18 -45 -5
-51 30 -9 45 -19 36 -17 -15 1 -29 -2 -45 -10 -45 -7 0 -19 -5 -27 -10 -13 -9
-13 -11 0 -20 33 -21 62 -10 131 52 38 34 67 64 64 66 -4 4 -24 7 -67 11 -9 0
-18 9 -21 19 -4 16 -5 16 -12 -2z"/>
<path d="M2546 723 c10 -40 12 -43 40 -43 21 0 23 3 14 19 -13 25 -39 51 -51
51 -5 0 -6 -12 -3 -27z"/>
<path d="M1784 708 c-9 -15 27 -41 39 -29 6 6 4 16 -6 25 -19 19 -24 20 -33 4z"/>
<path d="M1890 689 c5 -17 17 -37 26 -44 16 -11 14 -15 -24 -40 -27 -18 -48
-25 -61 -20 -11 3 -30 1 -42 -6 -19 -10 -25 -8 -41 10 -9 13 -22 20 -28 16 -6
-4 -22 0 -35 9 -22 14 -25 14 -40 -1 -23 -22 -7 -34 51 -36 39 -2 49 -6 52
-21 4 -17 0 -18 -34 -13 -48 8 -58 1 -61 -40 -2 -25 0 -31 12 -27 8 4 15 12
15 19 0 21 14 25 54 14 43 -12 62 -4 41 17 -17 18 -20 34 -5 34 6 0 10 -5 10
-12 0 -6 8 -4 19 6 11 10 28 16 38 15 38 -6 194 104 175 123 -10 10 -52 -10
-52 -24 0 -12 -35 -9 -48 4 -7 7 -12 20 -12 30 0 10 -4 18 -9 18 -6 0 -6 -12
-1 -31z"/>
<path d="M2448 708 c-2 -6 -18 -11 -34 -11 -22 0 -33 -7 -41 -24 -6 -12 -8
-23 -5 -23 10 0 112 60 112 65 0 10 -29 4 -32 -7z"/>
<path d="M649 683 c5 -19 15 -27 34 -30 35 -5 34 -1 -7 31 l-34 26 7 -27z"/>
<path d="M113 688 c-13 -6 -23 -17 -23 -25 0 -10 9 -7 30 9 42 30 38 38 -7 16z"/>
<path d="M2311 691 c0 -8 -11 -25 -22 -38 -20 -20 -20 -23 -5 -29 10 -4 29 -1
43 5 22 10 24 13 10 24 -8 7 -17 21 -20 32 -3 11 -5 14 -6 6z"/>
<path d="M2168 642 c-31 -26 -59 -52 -62 -59 -3 -7 15 -31 39 -54 25 -23 52
-62 62 -86 20 -47 25 -50 43 -28 10 11 5 20 -24 46 -20 17 -35 34 -32 36 10
10 75 -19 79 -35 4 -16 5 -16 6 0 0 10 -8 32 -19 50 -19 31 -20 32 -20 9 0
-19 -3 -22 -11 -14 -6 6 -18 9 -25 6 -9 -3 -14 2 -14 16 0 17 6 21 31 21 19 0
28 4 23 11 -3 6 -28 9 -58 7 -40 -2 -51 0 -51 12 0 8 15 19 35 24 33 9 75 49
75 70 0 22 -24 12 -77 -32z"/>
<path d="M130 626 c-36 -29 -78 -57 -95 -63 -19 -6 -31 -17 -33 -31 -4 -26 4
-28 24 -7 9 8 24 15 34 15 10 0 20 9 23 20 6 24 29 26 62 4 29 -19 58 -12 48
12 -5 13 -2 15 13 10 13 -4 23 1 32 14 16 25 6 25 -37 -1 -25 -15 -37 -17 -45
-9 -8 8 -1 19 27 42 20 16 37 34 37 39 0 19 -28 6 -90 -45z"/>
<path d="M2422 629 c-15 -18 -32 -29 -45 -28 -72 6 -93 -15 -26 -26 33 -6 43
-12 51 -36 6 -16 19 -34 30 -40 28 -15 32 -6 8 16 -11 10 -20 29 -20 42 0 21
5 18 51 -27 28 -28 55 -50 61 -50 14 0 -1 39 -23 61 -10 10 -19 23 -19 27 0 5
-16 16 -36 25 -30 15 -34 20 -24 32 7 8 21 15 31 15 11 0 19 5 19 10 0 21 -36
8 -58 -21z"/>
<path d="M1196 643 c-9 -10 -7 -63 3 -63 11 0 20 59 11 65 -4 3 -10 2 -14 -2z"/>
<path d="M2952 643 c22 -6 27 -25 25 -96 -1 -31 1 -57 6 -57 4 0 7 36 7 80 l0
80 -27 -1 c-17 -1 -21 -3 -11 -6z"/>
<path d="M911 614 c-17 -19 -26 -23 -34 -15 -16 16 -47 13 -47 -4 0 -8 -4 -15
-10 -15 -5 0 -10 -6 -10 -12 0 -7 -11 -34 -24 -60 -17 -36 -20 -48 -10 -48 8
0 14 7 14 15 0 8 8 15 19 15 10 0 24 -7 31 -15 7 -8 21 -15 31 -15 10 0 22 -7
27 -15 7 -14 12 -14 43 -1 34 14 63 48 52 60 -12 12 -24 5 -33 -19 -13 -34
-35 -31 -51 6 -12 30 -13 30 -20 10 -15 -39 -69 -20 -69 24 0 21 33 65 49 65
5 0 19 -11 32 -25 13 -13 30 -25 37 -25 15 0 15 2 -2 35 -16 31 -12 52 12 58
14 4 15 5 1 6 -8 0 -26 -11 -38 -25z"/>
<path d="M986 605 c8 -20 12 -41 8 -47 -4 -6 -1 -9 7 -6 8 3 13 15 11 26 -2
12 2 22 9 22 6 0 0 9 -14 20 -35 28 -38 25 -21 -15z"/>
<path d="M2487 626 c-16 -13 -15 -14 11 -18 22 -3 28 0 29 14 2 21 -15 23 -40
4z"/>
<path d="M753 621 c-19 -14 -13 -32 9 -29 25 3 38 35 14 35 -8 0 -19 -3 -23
-6z"/>
<path d="M2240 620 c0 -5 0 -13 -1 -17 0 -4 8 -10 19 -14 17 -7 18 -5 8 17
-11 24 -26 32 -26 14z"/>
<path d="M1285 591 c-21 -42 -19 -54 5 -39 11 7 18 18 16 24 -2 6 0 16 6 22 6
6 6 12 -1 16 -5 4 -17 -7 -26 -23z"/>
<path d="M1461 607 c-10 -12 -5 -15 29 -19 22 -2 40 0 40 4 0 5 -8 8 -18 8
-10 0 -23 5 -28 10 -8 8 -14 6 -23 -3z"/>
<path d="M2713 613 c-27 -10 -11 -18 27 -15 22 2 37 8 34 13 -6 10 -41 11 -61
2z"/>
<path d="M360 601 c0 -5 -7 -17 -16 -25 -24 -25 -12 -40 14 -16 23 21 30 50
12 50 -5 0 -10 -4 -10 -9z"/>
<path d="M1353 595 c-3 -9 -3 -18 -1 -21 8 -8 58 15 58 26 0 16 -50 12 -57 -5z"/>
<path d="M1944 585 c-19 -14 -19 -14 3 -15 30 0 54 10 47 21 -8 13 -28 11 -50
-6z"/>
<path d="M1546 558 c3 -4 12 -8 20 -8 8 0 14 -8 14 -19 0 -15 -6 -18 -32 -15
-34 3 -78 -20 -63 -33 4 -5 10 -2 12 5 7 18 63 15 86 -5 19 -17 20 -17 14 6
-3 14 1 33 10 47 8 13 14 25 12 25 -16 6 -77 4 -73 -3z"/>
<path d="M2264 559 c-3 -5 8 -14 24 -20 17 -6 33 -17 36 -25 7 -18 40 -18 55
0 9 10 -1 17 -49 34 -35 11 -62 16 -66 11z"/>
<path d="M434 545 c-4 -8 -15 -15 -25 -15 -12 0 -16 -5 -13 -15 9 -24 40 -18
52 10 15 32 15 35 2 35 -6 0 -13 -7 -16 -15z"/>
<path d="M1842 537 c-6 -7 -9 -23 -5 -35 5 -20 1 -22 -31 -22 -42 0 -44 -6
-13 -40 12 -14 18 -20 13 -13 -11 16 12 46 30 39 17 -6 27 9 29 46 3 32 -8 44
-23 25z"/>
<path d="M1902 533 c2 -10 13 -22 25 -28 11 -6 28 -17 36 -24 14 -11 14 -10 4
13 -6 13 -14 23 -16 20 -2 -2 -10 5 -18 16 -17 25 -36 26 -31 3z"/>
<path d="M2036 541 c-3 -5 4 -11 17 -15 34 -8 83 -57 92 -91 5 -16 9 -33 10
-37 2 -5 3 -12 4 -17 0 -5 13 -8 27 -8 26 0 47 -20 38 -35 -3 -4 2 -8 11 -8
13 0 14 4 5 21 -6 11 -18 23 -25 25 -8 3 -24 25 -35 49 -12 24 -41 62 -65 84
-44 40 -68 50 -79 32z"/>
<path d="M2585 530 c10 -11 25 -20 34 -20 12 1 10 5 -8 20 -30 26 -49 26 -26
0z"/>
<path d="M2657 529 c3 -10 0 -19 -6 -19 -5 0 -8 -6 -5 -14 5 -12 9 -11 25 5
25 25 25 31 1 40 -16 6 -19 4 -15 -12z"/>
<path d="M2795 530 c-5 -15 -12 -19 -31 -14 -19 5 -23 3 -18 -10 3 -9 10 -14
14 -11 4 3 10 -4 13 -15 3 -11 10 -20 16 -20 9 0 9 5 1 20 -8 15 -8 20 2 20 8
0 15 11 16 25 2 30 -4 33 -13 5z"/>
<path d="M1228 520 c-10 -11 -24 -17 -32 -14 -8 3 -17 0 -21 -6 -5 -8 4 -11
30 -8 22 2 40 -2 42 -8 6 -18 -99 -134 -122 -134 -18 -1 -18 -2 -3 -11 13 -7
24 -5 43 7 32 21 39 14 39 -36 0 -51 9 -51 27 2 10 32 11 42 1 46 -21 7 -12
46 18 82 48 55 65 15 36 -82 -23 -78 -45 -118 -62 -118 -17 0 -18 -12 -2 -28
16 -16 28 -15 28 1 0 7 15 37 34 67 l34 55 7 -30 c10 -47 15 -58 21 -52 4 3
-1 27 -10 53 -19 57 -21 100 -3 108 10 5 10 7 0 12 -20 9 -16 62 5 67 16 4 16
5 0 6 -10 0 -18 6 -18 13 0 6 -8 4 -19 -6 -22 -20 -39 -14 -49 15 -7 19 -8 19
-24 -1z"/>
<path d="M1070 521 c0 -11 50 -24 58 -16 8 8 -19 25 -40 25 -10 0 -18 -4 -18
-9z"/>
<path d="M188 484 c-4 -3 2 -15 12 -27 14 -14 23 -17 32 -10 7 6 27 15 43 21
l30 11 -40 -1 c-22 -1 -47 2 -56 6 -8 3 -18 4 -21 0z"/>
<path d="M530 471 c0 -22 25 -46 34 -32 4 5 1 13 -5 16 -5 4 -8 13 -5 21 3 8
-1 14 -9 14 -8 0 -15 -8 -15 -19z"/>
<path d="M58 452 c-14 -25 -13 -29 3 -44 10 -10 21 -13 24 -8 3 5 1 11 -5 15
-14 9 -13 21 5 38 12 12 12 16 1 20 -7 3 -20 -7 -28 -21z"/>
<path d="M127 464 c-10 -11 -9 -54 2 -54 15 0 18 13 12 38 -3 13 -9 20 -14 16z"/>
<path d="M707 463 c-13 -13 -7 -32 8 -27 9 4 15 0 15 -10 0 -9 -8 -16 -20 -16
-11 0 -20 5 -20 12 0 9 -3 9 -12 0 -9 -9 -9 -15 0 -24 7 -7 12 -8 12 -3 0 4 9
0 19 -9 26 -24 41 -13 37 28 -4 48 -20 68 -39 49z"/>
<path d="M1540 440 c0 -11 -10 -31 -23 -44 -18 -18 -21 -27 -14 -45 6 -11 14
-21 20 -21 5 0 4 7 -3 14 -8 10 -8 21 -2 32 9 16 11 16 23 -4 8 -12 17 -22 21
-22 14 0 8 31 -7 36 -19 8 -20 34 -1 34 17 0 15 32 -2 38 -7 2 -12 -6 -12 -18z"/>
<path d="M352 443 c-22 -9 -2 -23 24 -17 33 9 31 -13 -3 -28 -16 -7 -39 -20
-52 -30 -36 -27 -50 -23 -46 12 2 17 2 30 0 30 -2 0 -26 -8 -52 -19 -26 -10
-64 -22 -83 -26 -19 -4 -59 -16 -87 -27 -59 -22 -73 -45 -20 -33 17 4 39 8 47
8 8 1 21 10 28 20 7 9 23 17 36 17 13 0 37 7 54 16 18 8 40 13 50 11 15 -4 14
-6 -5 -12 -12 -4 -24 -14 -27 -22 -5 -12 2 -13 42 -8 75 10 109 24 127 51 9
13 20 22 25 19 18 -11 31 5 20 26 -10 18 -48 24 -78 12z"/>
<path d="M1657 432 c-25 -28 -21 -35 18 -28 22 4 35 3 35 -4 0 -5 12 -10 26
-10 16 0 37 -12 55 -31 16 -18 33 -29 36 -25 10 10 -10 39 -36 52 -13 7 -28
17 -34 23 -6 6 -21 11 -33 11 -12 0 -24 7 -28 15 -7 20 -19 19 -39 -3z"/>
<path d="M2785 441 c-3 -6 -1 -11 5 -11 7 0 9 -8 5 -21 -6 -18 -5 -19 13 -10
12 6 30 11 41 11 11 0 22 4 25 8 3 5 -9 6 -26 4 -22 -3 -35 0 -44 12 -8 11
-14 13 -19 7z"/>
<path d="M2967 433 c-4 -3 -7 -14 -7 -24 0 -10 -9 -21 -20 -24 -22 -7 -56 -52
-47 -61 9 -10 28 6 21 18 -4 7 7 8 35 3 l41 -7 0 51 c0 47 -7 61 -23 44z"/>
<path d="M807 406 c3 -16 10 -23 19 -19 8 3 18 -5 24 -21 5 -14 14 -26 20 -26
16 0 12 14 -10 38 -11 12 -19 27 -18 34 2 7 -7 14 -18 16 -18 3 -21 -1 -17
-22z"/>
<path d="M0 396 c0 -16 5 -26 15 -26 8 0 15 6 15 14 0 7 -7 19 -15 26 -13 11
-15 8 -15 -14z"/>
<path d="M623 413 c-41 -8 -22 -63 22 -63 20 1 20 1 0 16 -16 12 -18 18 -7 34
7 11 11 19 10 19 -2 -1 -13 -4 -25 -6z"/>
<path d="M1032 390 c-12 -16 -22 -36 -22 -45 0 -8 -7 -15 -17 -15 -9 0 -13 -3
-10 -6 11 -11 -13 -44 -31 -44 -10 0 -24 6 -31 13 -10 10 -11 9 -6 -4 8 -21
-30 -55 -47 -41 -16 13 -68 4 -68 -12 0 -6 -3 -22 -7 -36 -6 -25 -6 -25 19 4
15 17 36 30 54 32 28 2 63 8 94 15 17 5 50 42 50 58 0 6 4 11 9 11 5 0 11 13
14 29 4 20 14 31 31 35 17 4 23 11 20 21 -9 23 -28 18 -52 -15z"/>
<path d="M456 364 c-27 -7 -54 -10 -59 -7 -6 3 -7 1 -3 -5 4 -7 30 -12 58 -12
34 0 58 -6 70 -17 16 -14 18 -14 18 -1 0 9 10 19 23 23 21 7 21 7 2 12 -11 3
-24 9 -29 14 -12 11 -17 10 -80 -7z"/>
<path d="M770 351 c0 -12 -4 -21 -10 -21 -5 0 -10 -4 -10 -10 0 -5 6 -10 14
-10 15 0 28 48 15 56 -5 3 -9 -4 -9 -15z"/>
<path d="M1595 338 c-27 -27 -28 -30 -8 -25 14 3 24 -1 28 -11 8 -23 19 -5 21
34 1 41 -2 41 -41 2z"/>
<path d="M2827 352 c-21 -4 -55 -70 -49 -94 6 -31 22 -19 28 22 4 24 15 47 27
55 23 16 21 23 -6 17z"/>
<path d="M709 348 c0 -2 -2 -16 -4 -33 l-4 -30 19 25 c18 24 18 40 -1 40 -5 0
-9 -1 -10 -2z"/>
<path d="M2277 344 c-10 -11 3 -24 23 -24 13 0 17 5 14 15 -6 15 -26 20 -37 9z"/>
<path d="M2717 343 c-5 -7 -5 -17 -2 -23 3 -5 1 -10 -4 -10 -6 0 -11 -7 -11
-15 0 -8 -4 -15 -10 -15 -5 0 -10 -7 -10 -15 0 -8 -4 -15 -10 -15 -5 0 -10 -6
-10 -13 0 -14 -83 -60 -106 -60 -7 0 -18 -13 -25 -29 -6 -15 -18 -28 -25 -28
-9 0 -14 -11 -14 -30 0 -27 2 -29 18 -19 10 6 23 21 28 33 7 16 17 21 47 20
29 -1 35 1 27 11 -13 15 3 30 20 20 6 -3 10 4 10 17 0 13 5 29 12 36 17 17 48
15 48 -3 0 -8 4 -15 9 -15 5 0 4 18 -2 41 -9 36 -8 44 7 55 11 8 16 22 14 41
-2 18 -6 24 -11 16z"/>
<path d="M2598 323 c18 -7 14 -31 -8 -45 -36 -23 -21 -29 20 -8 37 19 59 57
25 44 -8 -4 -15 -1 -15 5 0 6 -8 11 -17 10 -11 0 -13 -3 -5 -6z"/>
<path d="M365 311 c-3 -6 -19 -11 -36 -11 -29 0 -40 -15 -17 -22 7 -3 13 -13
13 -23 0 -10 6 -20 13 -22 8 -3 10 1 6 12 -4 10 2 26 16 40 13 14 21 27 18 31
-3 3 -9 1 -13 -5z"/>
<path d="M91 284 c-16 -18 -2 -39 27 -39 9 0 18 -8 20 -17 2 -11 -3 -18 -12
-18 -9 0 -16 -4 -16 -9 0 -6 12 -6 31 1 25 8 33 8 40 -3 16 -24 5 -44 -23 -44
-15 1 -24 -3 -22 -7 3 -4 -14 -7 -38 -5 -43 2 -43 2 -40 38 3 39 -13 55 -39
38 -10 -6 -10 -9 -1 -9 6 0 12 -9 12 -20 0 -12 -7 -20 -16 -20 -20 0 -14 -34
6 -36 8 -1 20 -3 25 -4 6 -1 22 -1 38 0 19 1 27 -3 27 -14 0 -19 16 -21 23 -3
3 6 6 -3 6 -20 1 -32 14 -43 26 -23 4 6 2 17 -5 25 -9 11 -7 18 10 35 11 11
24 19 28 16 4 -2 7 9 6 25 -1 23 -10 36 -36 54 -40 27 -55 54 -36 67 9 5 7 8
-7 7 -11 0 -26 -7 -34 -15z"/>
<path d="M190 274 c0 -31 20 -41 36 -20 7 10 17 15 23 11 6 -3 11 0 11 8 0 9
-13 16 -35 19 -31 3 -35 1 -35 -18z"/>
<path d="M590 291 c0 -12 29 -23 41 -15 18 10 9 24 -16 24 -14 0 -25 -4 -25
-9z"/>
<path d="M1458 289 c-11 -6 -18 -22 -18 -41 0 -27 2 -30 25 -24 18 5 25 2 25
-9 0 -8 -7 -15 -15 -15 -8 0 -15 -7 -15 -15 0 -21 12 -19 33 5 10 12 23 18 29
14 18 -12 -3 19 -25 35 -13 9 -17 20 -13 37 7 26 1 29 -26 13z"/>
<path d="M390 273 c0 -7 6 -13 13 -14 6 0 25 -2 40 -3 15 -1 34 5 42 14 13 15
9 16 -40 16 -39 0 -55 -4 -55 -13z"/>
<path d="M2939 277 c6 -8 8 -17 4 -21 -4 -3 -8 -13 -9 -21 -2 -13 2 -12 27 0
35 18 38 40 7 49 -35 9 -41 7 -29 -7z"/>
<path d="M1680 264 c0 -3 5 -14 11 -25 10 -20 11 -20 24 -2 20 26 18 33 -10
33 -14 0 -25 -3 -25 -6z"/>
<path d="M581 244 c-1 -12 -8 -24 -16 -28 -8 -3 -15 -13 -15 -23 -1 -16 -3
-15 -20 5 -10 12 -21 18 -24 13 -6 -9 2 -18 36 -47 17 -14 38 -7 32 10 -3 8 6
23 20 34 29 22 33 32 12 32 -8 0 -17 6 -19 13 -3 6 -6 2 -6 -9z"/>
<path d="M252 243 c-10 -4 -8 -9 8 -20 17 -12 20 -21 14 -46 -3 -18 -10 -34
-14 -37 -13 -9 -17 -70 -5 -70 17 0 34 21 29 35 -3 7 -1 16 5 20 8 4 8 12 0
27 -6 11 -7 23 -3 27 5 3 15 13 22 22 10 14 10 20 -3 33 -17 16 -30 19 -53 9z"/>
<path d="M731 227 c-11 -30 -3 -74 15 -81 12 -4 12 -2 4 14 -6 11 -8 36 -4 55
7 40 -2 47 -15 12z"/>
<path d="M1574 229 c-18 -20 -18 -20 11 -13 37 8 39 10 30 23 -9 16 -20 13
-41 -10z"/>
<path d="M2472 230 c-7 -12 -17 -18 -22 -15 -6 3 -7 -1 -4 -9 7 -19 6 -19 38
-3 21 12 24 16 13 31 -11 15 -13 15 -25 -4z"/>
<path d="M414 215 c-16 -12 -17 -14 -2 -15 23 0 48 11 48 21 0 14 -24 11 -46
-6z"/>
<path d="M2350 214 l-25 -13 33 -1 c17 0 32 4 32 9 0 18 -15 19 -40 5z"/>
<path d="M2980 203 c-2 -13 -3 -29 -4 -35 -1 -7 -8 -16 -16 -20 -12 -5 -12 -7
3 -7 22 -1 30 18 24 56 -3 24 -4 25 -7 6z"/>
<path d="M445 173 c-20 -11 -30 -12 -33 -4 -4 13 -42 15 -42 3 0 -5 -10 -14
-22 -21 -22 -11 -22 -11 5 -6 15 3 27 1 27 -5 0 -5 9 -10 20 -10 12 0 20 -7
20 -16 0 -12 3 -14 13 -6 21 17 97 6 119 -18 16 -18 22 -19 29 -8 14 22 10 30
-11 23 -15 -5 -20 -2 -20 13 0 22 -48 37 -64 21 -16 -15 -46 -10 -46 7 0 9 9
18 20 21 11 3 20 9 20 14 0 11 1 11 -35 -8z"/>
<path d="M2090 180 c0 -5 7 -7 15 -4 8 4 22 1 30 -6 8 -6 20 -10 27 -7 8 3 1
9 -15 16 -35 14 -57 14 -57 1z"/>
<path d="M600 155 c7 -8 9 -15 4 -15 -5 0 -1 -5 9 -11 28 -16 34 -2 9 21 -25
23 -40 27 -22 5z"/>
<path d="M1662 145 c3 -13 1 -22 -3 -19 -5 3 -19 7 -31 9 -19 4 -20 3 -7 -9 8
-8 23 -17 34 -20 18 -5 21 -1 23 29 2 21 -2 35 -9 35 -7 0 -9 -10 -7 -25z"/>
<path d="M1962 154 c-12 -8 -32 -14 -44 -12 -11 2 -23 -3 -25 -9 -8 -22 40
-14 72 12 33 27 32 34 -3 9z"/>
<path d="M774 142 c-7 -10 -17 -44 -24 -75 -11 -49 -16 -57 -37 -57 -27 0 -28
8 -8 74 18 61 19 66 1 66 -19 0 -36 -54 -34 -107 l2 -43 41 0 c42 0 65 13 65
38 0 8 9 26 21 40 19 24 19 27 4 30 -12 3 -16 11 -12 28 5 28 -4 31 -19 6z"/>
<path d="M2090 146 c0 -14 -5 -17 -24 -12 -15 4 -28 0 -36 -9 -11 -13 -6 -15
34 -15 47 0 56 10 36 40 -8 13 -10 12 -10 -4z"/>
<path d="M2920 152 c0 -5 -10 -13 -22 -19 -20 -9 -18 -12 31 -53 36 -31 51
-50 48 -62 -3 -10 -1 -18 4 -18 5 0 8 26 8 58 -1 31 -3 49 -6 40 -5 -19 -23
-25 -23 -8 0 6 -9 10 -19 10 -27 0 -38 20 -17 32 18 10 22 28 6 28 -5 0 -10
-4 -10 -8z"/>
<path d="M2716 134 c-9 -23 -8 -24 13 -24 21 0 45 -23 34 -33 -3 -4 -1 -7 5
-7 20 0 13 38 -10 60 -26 24 -34 25 -42 4z"/>
<path d="M209 123 c-10 -2 -19 -13 -22 -23 -5 -20 -5 -20 51 16 8 5 -15 10
-29 7z"/>
<path d="M1470 116 c0 -7 6 -19 14 -25 11 -9 15 -8 20 5 10 26 7 34 -14 34
-11 0 -20 -6 -20 -14z"/>
<path d="M1829 118 c-4 -18 -6 -58 -3 -58 12 0 34 30 34 44 0 13 -28 24 -31
14z"/>
<path d="M1516 94 c-4 -9 -5 -19 -2 -21 6 -6 46 20 46 29 0 15 -38 8 -44 -8z"/>
<path d="M2160 95 c47 -18 71 -18 40 0 -14 8 -36 14 -50 14 -22 0 -21 -2 10
-14z"/>
<path d="M316 74 c-8 -29 1 -64 15 -64 6 0 8 4 4 10 -8 13 26 50 47 50 26 0
32 -20 12 -35 -11 -8 -14 -15 -7 -15 6 0 15 5 18 10 5 8 11 7 21 -1 19 -15 18
1 -2 29 -8 12 -26 22 -40 22 -13 0 -24 5 -24 10 0 23 -38 9 -44 -16z"/>
<path d="M2838 58 c9 -24 16 -44 16 -44 1 -1 19 -4 41 -8 l40 -7 -50 50 c-27
28 -53 51 -57 51 -3 0 1 -19 10 -42z"/>
<path d="M1093 75 c-20 -22 -15 -35 12 -35 26 0 29 7 19 34 -7 19 -15 20 -31
1z"/>
<path d="M2390 80 c-8 -5 -12 -10 -7 -10 4 0 -1 -8 -10 -18 -11 -11 -27 -16
-42 -13 -15 2 -22 0 -18 -6 11 -17 45 -22 51 -7 3 8 13 14 23 14 28 0 44 15
37 33 -7 19 -13 21 -34 7z"/>
<path d="M2673 68 c-7 -9 -5 -18 7 -29 14 -14 20 -14 35 -2 16 11 17 13 2 13
-9 0 -20 7 -25 16 -7 12 -10 13 -19 2z"/>
<path d="M95 60 c-4 -6 -14 -8 -23 -6 -26 8 -45 -8 -37 -33 5 -16 14 -21 38
-20 29 1 30 2 8 8 -39 11 -36 29 4 29 43 0 50 5 31 21 -10 9 -16 9 -21 1z"/>
<path d="M189 47 c-9 -7 -14 -17 -12 -24 3 -7 -9 -13 -29 -16 -31 -4 -31 -4 7
-5 37 -2 42 1 52 28 12 32 7 37 -18 17z"/>
<path d="M1430 30 c0 -20 25 -38 36 -27 8 7 -15 47 -26 47 -6 0 -10 -9 -10
-20z"/>
<path d="M2570 40 c19 -12 57 -13 64 -1 3 5 -13 9 -36 9 -30 1 -38 -2 -28 -8z"/>
</g>
</svg>
